<svg width="168" height="54" viewBox="0 0 168 54" fill="none" xmlns="http://www.w3.org/2000/svg">
<path d="M12.9901 15.4444C10.1066 18.4407 8.33366 22.5133 8.33366 27.0001C8.33366 36.2049 15.7956 43.6667 25.0003 43.6667C27.252 43.6667 29.3995 43.2203 31.3589 42.4109C31.5984 40.8474 31.0728 39.3472 30.8578 38.8222C30.3795 37.6563 28.8005 35.663 26.1647 32.8976C25.4612 32.158 25.5064 31.5907 25.7578 29.9049L25.7868 29.7145C25.9576 28.5597 26.2443 27.877 30.1299 27.2601C32.1039 26.9472 32.623 27.7361 33.3426 28.8286C33.4222 28.9497 33.5018 29.0684 33.5832 29.1874C34.2668 30.187 34.7732 30.4155 35.5382 30.7634C35.881 30.9188 36.3087 31.1149 36.8818 31.4405C38.2401 32.2167 38.2401 33.0932 38.2401 35.0151V35.233C38.2401 36.0488 38.1603 36.7651 38.0349 37.3874C40.3082 34.5386 41.667 30.928 41.667 27.0001C41.667 20.1269 37.5066 14.2255 31.5668 11.6768C30.4143 12.4545 28.8332 13.5569 28.2816 14.3126C27.9995 14.6988 27.6007 16.6702 26.3039 16.8329C25.9641 16.8756 25.5082 16.8457 25.0253 16.8146C23.7305 16.7305 21.9591 16.6169 21.392 18.1562C21.032 19.1317 20.9687 21.7802 22.1335 23.1549C22.3199 23.3745 22.3559 23.7807 22.2293 24.2365C22.0628 24.8351 21.7266 25.1992 21.6218 25.2745C21.4209 25.159 21.0203 24.694 20.749 24.3776C20.0952 23.6178 19.2796 22.6716 18.2253 22.3787C17.8419 22.2726 17.4204 22.1848 17.0117 22.0987C15.8678 21.859 14.5721 21.5862 14.271 20.9439C14.0512 20.4734 14.0522 19.8255 14.053 19.141C14.053 18.2734 14.053 17.2924 13.628 16.3387C13.4638 15.9697 13.2438 15.676 12.9901 15.4444ZM25.0003 47.8334C13.4944 47.8334 4.16699 38.5059 4.16699 27.0001C4.16699 15.4941 13.4944 6.16675 25.0003 6.16675C36.5062 6.16675 45.8337 15.4941 45.8337 27.0001C45.8337 38.5059 36.5062 47.8334 25.0003 47.8334Z" fill="white"/>
<path d="M66.61 38.895H65.53L72.415 19.5H76.33L67.78 42H64.405L55.9 19.5H59.815L66.61 38.895ZM84.6163 10.5V14.865H79.9363V10.5H84.6163ZM80.4763 19.5H84.0763V42H80.4763V19.5ZM89.1448 34.755H92.4748C92.5648 36.045 93.0448 37.095 93.9148 37.905C94.8148 38.715 96.1048 39.12 97.7848 39.12C98.8048 39.12 99.5998 38.985 100.17 38.715C100.77 38.445 101.205 38.085 101.475 37.635C101.745 37.155 101.88 36.63 101.88 36.06C101.88 35.37 101.7 34.83 101.34 34.44C101.01 34.02 100.545 33.675 99.9448 33.405C99.3748 33.135 98.7148 32.88 97.9648 32.64C97.0948 32.31 96.1948 31.965 95.2648 31.605C94.3648 31.215 93.5098 30.765 92.6998 30.255C91.9198 29.715 91.2898 29.07 90.8098 28.32C90.3298 27.54 90.0898 26.61 90.0898 25.53C90.0898 24.63 90.2698 23.79 90.6298 23.01C90.9898 22.2 91.4998 21.51 92.1598 20.94C92.8498 20.34 93.6448 19.875 94.5448 19.545C95.4748 19.215 96.4948 19.05 97.6048 19.05C99.1048 19.05 100.365 19.35 101.385 19.95C102.435 20.55 103.23 21.405 103.77 22.515C104.34 23.595 104.64 24.855 104.67 26.295H101.565C101.355 24.945 100.92 23.97 100.26 23.37C99.6298 22.74 98.7148 22.425 97.5148 22.425C96.2848 22.425 95.3398 22.695 94.6798 23.235C94.0198 23.775 93.6898 24.495 93.6898 25.395C93.6898 26.055 93.9298 26.61 94.4098 27.06C94.8898 27.48 95.5048 27.87 96.2548 28.23C97.0348 28.56 97.8598 28.905 98.7298 29.265C99.5998 29.625 100.44 29.985 101.25 30.345C102.06 30.705 102.78 31.125 103.41 31.605C104.04 32.085 104.535 32.685 104.895 33.405C105.285 34.095 105.48 34.965 105.48 36.015C105.48 37.275 105.18 38.4 104.58 39.39C104.01 40.35 103.155 41.1 102.015 41.64C100.905 42.18 99.5398 42.45 97.9198 42.45C96.4498 42.45 95.1898 42.27 94.1398 41.91C93.1198 41.52 92.2648 41.025 91.5748 40.425C90.8848 39.795 90.3448 39.135 89.9548 38.445C89.5948 37.755 89.3548 37.08 89.2348 36.42C89.1148 35.76 89.0848 35.205 89.1448 34.755ZM114.543 10.5V14.865H109.863V10.5H114.543ZM110.403 19.5H114.003V42H110.403V19.5ZM129.917 42.45C127.997 42.45 126.197 41.985 124.517 41.055C122.837 40.125 121.472 38.79 120.422 37.05C119.402 35.28 118.892 33.195 118.892 30.795C118.892 28.395 119.402 26.325 120.422 24.585C121.472 22.815 122.837 21.45 124.517 20.49C126.197 19.53 127.997 19.05 129.917 19.05C131.837 19.05 133.622 19.53 135.272 20.49C136.952 21.45 138.302 22.815 139.322 24.585C140.342 26.325 140.852 28.395 140.852 30.795C140.852 33.195 140.342 35.28 139.322 37.05C138.302 38.79 136.952 40.125 135.272 41.055C133.622 41.985 131.837 42.45 129.917 42.45ZM129.917 39.075C131.177 39.075 132.362 38.76 133.472 38.13C134.582 37.5 135.482 36.57 136.172 35.34C136.892 34.08 137.252 32.565 137.252 30.795C137.252 29.025 136.892 27.525 136.172 26.295C135.482 25.035 134.582 24.075 133.472 23.415C132.362 22.755 131.177 22.425 129.917 22.425C128.657 22.425 127.457 22.755 126.317 23.415C125.207 24.045 124.292 24.99 123.572 26.25C122.852 27.48 122.492 28.995 122.492 30.795C122.492 32.565 122.837 34.08 123.527 35.34C124.247 36.57 125.177 37.5 126.317 38.13C127.457 38.76 128.657 39.075 129.917 39.075ZM145.42 19.5H149.02V42H145.42V19.5ZM156.76 19.05C157.96 19.05 159.04 19.23 160 19.59C160.96 19.95 161.77 20.475 162.43 21.165C163.09 21.855 163.6 22.695 163.96 23.685C164.32 24.645 164.5 25.74 164.5 26.97V42H160.9V27.87C160.9 26.13 160.495 24.825 159.685 23.955C158.875 23.085 157.66 22.65 156.04 22.65C154.81 22.65 153.67 22.965 152.62 23.595C151.57 24.225 150.7 25.095 150.01 26.205C149.35 27.285 148.945 28.545 148.795 29.985L148.75 27.375C148.9 26.115 149.2 24.975 149.65 23.955C150.13 22.935 150.715 22.065 151.405 21.345C152.125 20.595 152.935 20.025 153.835 19.635C154.765 19.245 155.74 19.05 156.76 19.05Z" fill="white"/>
</svg>
