<svg width="1049" height="216" viewBox="0 0 1049 216" fill="none" xmlns="http://www.w3.org/2000/svg">
<path d="M247.38 138.02H260.7C261.06 143.18 262.98 147.38 266.46 150.62C270.06 153.86 275.22 155.48 281.94 155.48C286.02 155.48 289.2 154.94 291.48 153.86C293.88 152.78 295.62 151.34 296.7 149.54C297.78 147.62 298.32 145.52 298.32 143.24C298.32 140.48 297.6 138.32 296.16 136.76C294.84 135.08 292.98 133.7 290.58 132.62C288.3 131.54 285.66 130.52 282.66 129.56C279.18 128.24 275.58 126.86 271.86 125.42C268.26 123.86 264.84 122.06 261.6 120.02C258.48 117.86 255.96 115.28 254.04 112.28C252.12 109.16 251.16 105.44 251.16 101.12C251.16 97.52 251.88 94.16 253.32 91.04C254.76 87.8 256.8 85.04 259.44 82.76C262.2 80.36 265.38 78.5 268.98 77.18C272.7 75.86 276.78 75.2 281.22 75.2C287.22 75.2 292.26 76.4 296.34 78.8C300.54 81.2 303.72 84.62 305.88 89.06C308.16 93.38 309.36 98.42 309.48 104.18H297.06C296.22 98.78 294.48 94.88 291.84 92.48C289.32 89.96 285.66 88.7 280.86 88.7C275.94 88.7 272.16 89.78 269.52 91.94C266.88 94.1 265.56 96.98 265.56 100.58C265.56 103.22 266.52 105.44 268.44 107.24C270.36 108.92 272.82 110.48 275.82 111.92C278.94 113.24 282.24 114.62 285.72 116.06C289.2 117.5 292.56 118.94 295.8 120.38C299.04 121.82 301.92 123.5 304.44 125.42C306.96 127.34 308.94 129.74 310.38 132.62C311.94 135.38 312.72 138.86 312.72 143.06C312.72 148.1 311.52 152.6 309.12 156.56C306.84 160.4 303.42 163.4 298.86 165.56C294.42 167.72 288.96 168.8 282.48 168.8C276.6 168.8 271.56 168.08 267.36 166.64C263.28 165.08 259.86 163.1 257.1 160.7C254.34 158.18 252.18 155.54 250.62 152.78C249.18 150.02 248.22 147.32 247.74 144.68C247.26 142.04 247.14 139.82 247.38 138.02ZM331.153 77H345.553V167H331.153V77ZM376.513 75.2C381.313 75.2 385.633 75.92 389.473 77.36C393.313 78.8 396.553 80.9 399.193 83.66C401.833 86.42 403.873 89.78 405.313 93.74C406.753 97.58 407.473 101.96 407.473 106.88V167H393.073V110.48C393.073 103.52 391.453 98.3 388.213 94.82C384.973 91.34 380.113 89.6 373.633 89.6C368.713 89.6 364.153 90.86 359.953 93.38C355.753 95.9 352.273 99.38 349.513 103.82C346.873 108.14 345.253 113.18 344.653 118.94L344.473 108.5C345.073 103.46 346.273 98.9 348.073 94.82C349.993 90.74 352.333 87.26 355.093 84.38C357.973 81.38 361.213 79.1 364.813 77.54C368.533 75.98 372.433 75.2 376.513 75.2ZM469.881 168.8C462.201 168.8 455.001 166.94 448.281 163.22C441.561 159.5 436.101 154.16 431.901 147.2C427.821 140.12 425.781 131.78 425.781 122.18C425.781 112.58 427.821 104.3 431.901 97.34C436.101 90.26 441.561 84.8 448.281 80.96C455.001 77.12 462.201 75.2 469.881 75.2C477.561 75.2 484.701 77.12 491.301 80.96C498.021 84.8 503.421 90.26 507.501 97.34C511.581 104.3 513.621 112.58 513.621 122.18C513.621 131.78 511.581 140.12 507.501 147.2C503.421 154.16 498.021 159.5 491.301 163.22C484.701 166.94 477.561 168.8 469.881 168.8ZM469.881 155.3C474.921 155.3 479.661 154.04 484.101 151.52C488.541 149 492.141 145.28 494.901 140.36C497.781 135.32 499.221 129.26 499.221 122.18C499.221 115.1 497.781 109.1 494.901 104.18C492.141 99.14 488.541 95.3 484.101 92.66C479.661 90.02 474.921 88.7 469.881 88.7C464.841 88.7 460.041 90.02 455.481 92.66C451.041 95.18 447.381 98.96 444.501 104C441.621 108.92 440.181 114.98 440.181 122.18C440.181 129.26 441.561 135.32 444.321 140.36C447.201 145.28 450.921 149 455.481 151.52C460.041 154.04 464.841 155.3 469.881 155.3ZM619.619 153.86L616.019 153.68L637.079 77H652.739L625.199 167H611.699L585.059 88.16H588.659L562.019 167H548.519L521.159 77H536.819L557.519 153.68L553.919 153.86L578.219 77H595.679L619.619 153.86ZM661.826 77H714.746V90.5H661.826V77ZM708.446 41H716.726V55.4H708.446C705.446 55.28 702.686 55.7 700.166 56.66C697.766 57.62 695.846 59.3 694.406 61.7C692.966 63.98 692.246 67.28 692.246 71.6V167H677.846V71.6C677.846 64.4 679.106 58.58 681.626 54.14C684.266 49.58 687.866 46.28 692.426 44.24C697.106 42.08 702.446 41 708.446 41ZM732.328 41H746.728V167H732.328V41ZM806.033 168.8C798.953 168.8 792.413 166.82 786.413 162.86C780.533 158.78 775.793 153.26 772.192 146.3C768.713 139.22 766.973 131.18 766.973 122.18C766.973 113.18 768.773 105.14 772.373 98.06C775.973 90.98 780.833 85.4 786.953 81.32C793.193 77.24 800.153 75.2 807.832 75.2C816.233 75.2 822.593 77.36 826.913 81.68C831.353 85.88 834.353 91.52 835.913 98.6C837.593 105.68 838.433 113.54 838.433 122.18C838.433 126.74 837.953 131.72 836.993 137.12C836.033 142.4 834.353 147.5 831.953 152.42C829.673 157.22 826.433 161.18 822.233 164.3C818.033 167.3 812.633 168.8 806.033 168.8ZM809.633 155.12C815.753 155.12 820.793 153.62 824.753 150.62C828.833 147.62 831.833 143.66 833.753 138.74C835.673 133.7 836.633 128.18 836.633 122.18C836.633 115.58 835.613 109.82 833.573 104.9C831.653 99.86 828.653 95.96 824.573 93.2C820.613 90.32 815.633 88.88 809.633 88.88C800.633 88.88 793.673 92.06 788.753 98.42C783.833 104.66 781.373 112.58 781.373 122.18C781.373 128.54 782.573 134.24 784.973 139.28C787.493 144.2 790.853 148.1 795.053 150.98C799.373 153.74 804.233 155.12 809.633 155.12ZM836.633 77H851.033V167H837.893C837.893 167 837.773 165.92 837.533 163.76C837.413 161.6 837.233 159.08 836.993 156.2C836.753 153.32 836.633 150.92 836.633 149V77ZM876.653 41H891.053V167H876.653V41ZM951.173 77L906.173 121.46L906.533 112.1L954.233 167H935.873L891.413 116.78L930.653 77H951.173ZM1027.86 138.02H1041.36C1040.4 143.9 1038.24 149.18 1034.88 153.86C1031.64 158.42 1027.32 162.08 1021.92 164.84C1016.64 167.48 1010.52 168.8 1003.56 168.8C995.161 168.8 987.601 166.82 980.881 162.86C974.161 158.78 968.821 153.26 964.861 146.3C961.021 139.22 959.101 131.18 959.101 122.18C959.101 113.18 960.961 105.14 964.681 98.06C968.521 90.98 973.741 85.4 980.341 81.32C986.941 77.24 994.381 75.2 1002.66 75.2C1011.42 75.2 1018.8 77.18 1024.8 81.14C1030.92 84.98 1035.42 90.68 1038.3 98.24C1041.3 105.68 1042.5 114.86 1041.9 125.78H973.501C974.101 131.66 975.721 136.82 978.361 141.26C981.001 145.7 984.481 149.18 988.801 151.7C993.121 154.1 998.041 155.3 1003.56 155.3C1009.68 155.3 1014.84 153.74 1019.04 150.62C1023.36 147.38 1026.3 143.18 1027.86 138.02ZM1003.2 88.7C995.761 88.7 989.521 90.86 984.481 95.18C979.441 99.5 976.081 105.38 974.401 112.82H1027.14C1026.66 104.9 1024.08 98.9 1019.4 94.82C1014.84 90.74 1009.44 88.7 1003.2 88.7Z" fill="white"/>
<mask id="mask0_82_231" style="mask-type:alpha" maskUnits="userSpaceOnUse" x="0" y="8" width="200" height="200">
<path d="M200 8H0V208H200V8Z" fill="white"/>
</mask>
<g mask="url(#mask0_82_231)">
<path d="M100.083 51.5H144.833V115.417C144.833 127.083 137 139.083 121.333 151.333C115.083 156.25 108 160.833 100.083 165V51.5ZM31.25 8H168.75C186 8 200 22 200 39.25V176.75C200 194 186 208 168.75 208H31.25C14 208 0 194 0 176.75V39.25C0 22 14 8 31.25 8ZM84.2833 178.166C87.2833 179.833 90.2 181.5 93.2833 183.083C94.6167 183.75 96.0333 184.416 97.5333 185.083C98.2833 185.5 99.2 185.666 100.117 185.666C100.95 185.666 101.867 185.5 102.7 185.083C103.783 184.583 105.117 183.916 106.95 183.083C108.7 182.25 111.7 180.583 115.867 178.166C120.033 175.666 124.117 173.166 127.95 170.416C131.783 167.666 136.033 164.25 140.533 160.083C144.867 156.25 148.783 152 152.367 147.416C155.783 142.75 158.533 137.75 160.617 132.416C162.867 126.75 163.95 121.083 163.95 115.416V38.7497C163.95 36.9997 163.283 35.4163 162.117 34.2497C160.783 32.9997 159.283 32.333 157.617 32.333H42.6167C40.8667 32.333 39.2833 32.9997 38.1167 34.2497C36.8667 35.4997 36.2 36.9997 36.2 38.7497V115.416C36.2 121.25 37.3667 127 39.5333 132.416C41.6167 137.75 44.3667 142.75 47.7833 147.416C51.3667 152 55.2833 156.25 59.6167 160.083C63.6167 163.833 67.8667 167.25 72.2 170.416C76.1167 173.166 80.2 175.75 84.2833 178.166V178.166Z" fill="white"/>
</g>
</svg>
