<svg width="818" height="200" viewBox="0 0 818 200" fill="none" xmlns="http://www.w3.org/2000/svg">
<g clip-path="url(#clip0_82_245)">
<mask id="mask0_82_245" style="mask-type:alpha" maskUnits="userSpaceOnUse" x="0" y="0" width="200" height="200">
<path d="M200 0H0V200H200V0Z" fill="white"/>
</mask>
<g mask="url(#mask0_82_245)">
<path d="M163.067 29.7918H126.317V66.7084L163.067 29.7918ZM163.1 140.333H200.017V103.5L163.1 140.333ZM126.317 103.542V140.292H163.067V103.458L199.983 66.7084V29.7918H163.067V66.7084L126.317 103.542ZM110.417 29.7834H73.6667L0 103.533V133.283H73.6667V170.2H110.417V103.533H36.9167L110.417 29.7834Z" fill="white"/>
</g>
</g>
<path d="M233.5 74H277.6V85.25H233.5V74ZM272.35 44H279.25V56H272.35C269.85 55.9 267.55 56.25 265.45 57.05C263.45 57.85 261.85 59.25 260.65 61.25C259.45 63.15 258.85 65.9 258.85 69.5V149H246.85V69.5C246.85 63.5 247.9 58.65 250 54.95C252.2 51.15 255.2 48.4 259 46.7C262.9 44.9 267.35 44 272.35 44ZM321.837 150.5C315.437 150.5 309.437 148.95 303.837 145.85C298.237 142.75 293.687 138.3 290.187 132.5C286.787 126.6 285.087 119.65 285.087 111.65C285.087 103.65 286.787 96.75 290.187 90.95C293.687 85.05 298.237 80.5 303.837 77.3C309.437 74.1 315.437 72.5 321.837 72.5C328.237 72.5 334.187 74.1 339.687 77.3C345.287 80.5 349.787 85.05 353.187 90.95C356.587 96.75 358.287 103.65 358.287 111.65C358.287 119.65 356.587 126.6 353.187 132.5C349.787 138.3 345.287 142.75 339.687 145.85C334.187 148.95 328.237 150.5 321.837 150.5ZM321.837 139.25C326.037 139.25 329.987 138.2 333.687 136.1C337.387 134 340.387 130.9 342.687 126.8C345.087 122.6 346.287 117.55 346.287 111.65C346.287 105.75 345.087 100.75 342.687 96.65C340.387 92.45 337.387 89.25 333.687 87.05C329.987 84.85 326.037 83.75 321.837 83.75C317.637 83.75 313.637 84.85 309.837 87.05C306.137 89.15 303.087 92.3 300.687 96.5C298.287 100.6 297.087 105.65 297.087 111.65C297.087 117.55 298.237 122.6 300.537 126.8C302.937 130.9 306.037 134 309.837 136.1C313.637 138.2 317.637 139.25 321.837 139.25ZM437.116 149H425.116V74H437.116V149ZM425.866 114.05L426.016 118.25C425.916 119.45 425.616 121.3 425.116 123.8C424.716 126.3 423.966 129.1 422.866 132.2C421.866 135.2 420.366 138.1 418.366 140.9C416.466 143.7 413.966 146 410.866 147.8C407.866 149.6 404.116 150.5 399.616 150.5C396.716 150.5 393.716 150.05 390.616 149.15C387.616 148.35 384.816 147 382.216 145.1C379.616 143.1 377.516 140.35 375.916 136.85C374.316 133.35 373.516 129 373.516 123.8V74H385.516V120.8C385.516 125.3 386.216 128.85 387.616 131.45C389.116 133.95 391.116 135.75 393.616 136.85C396.116 137.95 398.916 138.5 402.016 138.5C407.116 138.5 411.366 137.2 414.766 134.6C418.166 132 420.766 128.8 422.566 125C424.366 121.2 425.466 117.55 425.866 114.05ZM456.572 74H468.572V149H456.572V74ZM492.572 85.25C487.472 85.25 483.172 86.55 479.672 89.15C476.272 91.65 473.572 94.75 471.572 98.45C469.672 102.05 468.422 105.55 467.822 108.95L467.672 100.25C467.672 99.35 467.872 97.85 468.272 95.75C468.672 93.65 469.422 91.3 470.522 88.7C471.622 86 473.072 83.45 474.872 81.05C476.772 78.55 479.172 76.5 482.072 74.9C484.972 73.3 488.472 72.5 492.572 72.5V85.25ZM562.334 85.25L516.134 141.95L514.184 137.75H562.784V149H504.584V137.75L551.534 81.05L553.484 85.25H504.584V74H562.334V85.25ZM611.876 150.5C605.476 150.5 599.476 148.95 593.876 145.85C588.276 142.75 583.726 138.3 580.226 132.5C576.826 126.6 575.126 119.65 575.126 111.65C575.126 103.65 576.826 96.75 580.226 90.95C583.726 85.05 588.276 80.5 593.876 77.3C599.476 74.1 605.476 72.5 611.876 72.5C618.276 72.5 624.226 74.1 629.726 77.3C635.326 80.5 639.826 85.05 643.226 90.95C646.626 96.75 648.326 103.65 648.326 111.65C648.326 119.65 646.626 126.6 643.226 132.5C639.826 138.3 635.326 142.75 629.726 145.85C624.226 148.95 618.276 150.5 611.876 150.5ZM611.876 139.25C616.076 139.25 620.026 138.2 623.726 136.1C627.426 134 630.426 130.9 632.726 126.8C635.126 122.6 636.326 117.55 636.326 111.65C636.326 105.75 635.126 100.75 632.726 96.65C630.426 92.45 627.426 89.25 623.726 87.05C620.026 84.85 616.076 83.75 611.876 83.75C607.676 83.75 603.676 84.85 599.876 87.05C596.176 89.15 593.126 92.3 590.726 96.5C588.326 100.6 587.126 105.65 587.126 111.65C587.126 117.55 588.276 122.6 590.576 126.8C592.976 130.9 596.076 134 599.876 136.1C603.676 138.2 607.676 139.25 611.876 139.25ZM663.555 74H675.555V149H663.555V74ZM701.355 72.5C705.355 72.5 708.955 73.1 712.155 74.3C715.355 75.5 718.055 77.25 720.255 79.55C722.455 81.85 724.155 84.65 725.355 87.95C726.555 91.15 727.155 94.8 727.155 98.9V149H715.155V101.9C715.155 96.1 713.805 91.75 711.105 88.85C708.405 85.95 704.355 84.5 698.955 84.5C694.855 84.5 691.055 85.55 687.555 87.65C684.055 89.75 681.155 92.65 678.855 96.35C676.655 99.95 675.305 104.15 674.805 108.95L674.655 100.25C675.155 96.05 676.155 92.25 677.655 88.85C679.255 85.45 681.205 82.55 683.505 80.15C685.905 77.65 688.605 75.75 691.605 74.45C694.705 73.15 697.955 72.5 701.355 72.5ZM799.711 124.85H810.961C810.161 129.75 808.361 134.15 805.561 138.05C802.861 141.85 799.261 144.9 794.761 147.2C790.361 149.4 785.261 150.5 779.461 150.5C772.461 150.5 766.161 148.85 760.561 145.55C754.961 142.15 750.511 137.55 747.211 131.75C744.011 125.85 742.411 119.15 742.411 111.65C742.411 104.15 743.961 97.45 747.061 91.55C750.261 85.65 754.611 81 760.111 77.6C765.611 74.2 771.811 72.5 778.711 72.5C786.011 72.5 792.161 74.15 797.161 77.45C802.261 80.65 806.011 85.4 808.411 91.7C810.911 97.9 811.911 105.55 811.411 114.65H754.411C754.911 119.55 756.261 123.85 758.461 127.55C760.661 131.25 763.561 134.15 767.161 136.25C770.761 138.25 774.861 139.25 779.461 139.25C784.561 139.25 788.861 137.95 792.361 135.35C795.961 132.65 798.411 129.15 799.711 124.85ZM779.161 83.75C772.961 83.75 767.761 85.55 763.561 89.15C759.361 92.75 756.561 97.65 755.161 103.85H799.111C798.711 97.25 796.561 92.25 792.661 88.85C788.861 85.45 784.361 83.75 779.161 83.75Z" fill="white"/>
<defs>
<clipPath id="clip0_82_245">
<rect width="200" height="200" fill="white"/>
</clipPath>
</defs>
</svg>
