<svg width="601" height="216" viewBox="0 0 601 216" fill="none" xmlns="http://www.w3.org/2000/svg">
<path d="M100 193C146.944 193 185 154.944 185 108C185 61.0558 146.944 23 100 23C53.0558 23 15 61.0558 15 108C15 154.944 53.0558 193 100 193Z" stroke="white" stroke-width="12"/>
<path d="M100 58V158" stroke="white" stroke-width="12" stroke-linecap="round"/>
<path d="M100 128H80C74.4772 128 70 123.523 70 118V88" stroke="white" stroke-width="12" stroke-linecap="round" stroke-linejoin="round"/>
<path d="M100 108H120C125.522 108 130 112.477 130 118V138" stroke="white" stroke-width="12" stroke-linecap="round" stroke-linejoin="round"/>
<path d="M298.78 167V110.48C298.78 105.8 298.06 101.96 296.62 98.96C295.18 95.84 293.02 93.5 290.14 91.94C287.26 90.38 283.66 89.6 279.34 89.6C274.42 89.6 269.86 90.86 265.66 93.38C261.46 95.9 257.98 99.38 255.22 103.82C252.58 108.14 250.96 113.18 250.36 118.94L250.18 108.5C250.78 103.46 251.98 98.9 253.78 94.82C255.7 90.74 258.04 87.26 260.8 84.38C263.68 81.38 266.92 79.1 270.52 77.54C274.24 75.98 278.14 75.2 282.22 75.2C287.02 75.2 291.34 75.92 295.18 77.36C299.02 78.8 302.26 80.9 304.9 83.66C307.54 86.42 309.58 89.78 311.02 93.74C312.46 97.58 313.18 101.96 313.18 106.88V167H298.78ZM236.86 167V41H251.26V167H236.86ZM412.973 167H398.573V77H412.973V167ZM399.473 125.06L399.653 130.1C399.533 131.54 399.173 133.76 398.573 136.76C398.093 139.76 397.193 143.12 395.873 146.84C394.673 150.44 392.873 153.92 390.473 157.28C388.193 160.64 385.193 163.4 381.473 165.56C377.873 167.72 373.373 168.8 367.973 168.8C364.493 168.8 360.893 168.26 357.173 167.18C353.573 166.22 350.213 164.6 347.093 162.32C343.973 159.92 341.453 156.62 339.533 152.42C337.613 148.22 336.653 143 336.653 136.76V77H351.053V133.16C351.053 138.56 351.893 142.82 353.573 145.94C355.373 148.94 357.773 151.1 360.773 152.42C363.773 153.74 367.133 154.4 370.853 154.4C376.973 154.4 382.073 152.84 386.153 149.72C390.233 146.6 393.353 142.76 395.513 138.2C397.673 133.64 398.993 129.26 399.473 125.06ZM500.041 138.02H513.541C512.581 143.9 510.421 149.18 507.061 153.86C503.821 158.42 499.501 162.08 494.101 164.84C488.821 167.48 482.701 168.8 475.741 168.8C467.341 168.8 459.781 166.82 453.061 162.86C446.341 158.78 441.001 153.26 437.041 146.3C433.201 139.22 431.281 131.18 431.281 122.18C431.281 113.18 433.141 105.14 436.861 98.06C440.701 90.98 445.921 85.4 452.521 81.32C459.121 77.24 466.561 75.2 474.841 75.2C483.601 75.2 490.981 77.18 496.981 81.14C503.101 84.98 507.601 90.68 510.481 98.24C513.481 105.68 514.681 114.86 514.081 125.78H445.681C446.281 131.66 447.901 136.82 450.541 141.26C453.181 145.7 456.661 149.18 460.981 151.7C465.301 154.1 470.221 155.3 475.741 155.3C481.861 155.3 487.021 153.74 491.221 150.62C495.541 147.38 498.481 143.18 500.041 138.02ZM475.381 88.7C467.941 88.7 461.701 90.86 456.661 95.18C451.621 99.5 448.261 105.38 446.581 112.82H499.321C498.841 104.9 496.261 98.9 491.581 94.82C487.021 90.74 481.621 88.7 475.381 88.7ZM528.329 138.02H541.649C542.009 143.18 543.929 147.38 547.409 150.62C551.009 153.86 556.169 155.48 562.889 155.48C566.969 155.48 570.149 154.94 572.429 153.86C574.829 152.78 576.569 151.34 577.649 149.54C578.729 147.62 579.269 145.52 579.269 143.24C579.269 140.48 578.549 138.32 577.109 136.76C575.789 135.08 573.929 133.7 571.529 132.62C569.249 131.54 566.609 130.52 563.609 129.56C560.129 128.24 556.529 126.86 552.809 125.42C549.209 123.86 545.789 122.06 542.549 120.02C539.429 117.86 536.909 115.28 534.989 112.28C533.069 109.16 532.109 105.44 532.109 101.12C532.109 97.52 532.829 94.16 534.269 91.04C535.709 87.8 537.749 85.04 540.389 82.76C543.149 80.36 546.329 78.5 549.929 77.18C553.649 75.86 557.729 75.2 562.169 75.2C568.169 75.2 573.209 76.4 577.289 78.8C581.489 81.2 584.669 84.62 586.829 89.06C589.109 93.38 590.309 98.42 590.429 104.18H578.009C577.169 98.78 575.429 94.88 572.789 92.48C570.269 89.96 566.609 88.7 561.809 88.7C556.889 88.7 553.109 89.78 550.469 91.94C547.829 94.1 546.509 96.98 546.509 100.58C546.509 103.22 547.469 105.44 549.389 107.24C551.309 108.92 553.769 110.48 556.769 111.92C559.889 113.24 563.189 114.62 566.669 116.06C570.149 117.5 573.509 118.94 576.749 120.38C579.989 121.82 582.869 123.5 585.389 125.42C587.909 127.34 589.889 129.74 591.329 132.62C592.889 135.38 593.669 138.86 593.669 143.06C593.669 148.1 592.469 152.6 590.069 156.56C587.789 160.4 584.369 163.4 579.809 165.56C575.369 167.72 569.909 168.8 563.429 168.8C557.549 168.8 552.509 168.08 548.309 166.64C544.229 165.08 540.809 163.1 538.049 160.7C535.289 158.18 533.129 155.54 531.569 152.78C530.129 150.02 529.169 147.32 528.689 144.68C528.209 142.04 528.089 139.82 528.329 138.02Z" fill="white"/>
</svg>
