<svg width="619" height="216" viewBox="0 0 619 216" fill="none" xmlns="http://www.w3.org/2000/svg">
<path d="M273.72 168.8C266.64 168.8 260.1 166.82 254.1 162.86C248.22 158.78 243.48 153.26 239.88 146.3C236.4 139.22 234.66 131.18 234.66 122.18C234.66 113.18 236.46 105.14 240.06 98.06C243.66 90.98 248.52 85.4 254.64 81.32C260.88 77.24 267.84 75.2 275.52 75.2C283.92 75.2 290.28 77.36 294.6 81.68C299.04 85.88 302.04 91.52 303.6 98.6C305.28 105.68 306.12 113.54 306.12 122.18C306.12 126.74 305.64 131.72 304.68 137.12C303.72 142.4 302.04 147.5 299.64 152.42C297.36 157.22 294.12 161.18 289.92 164.3C285.72 167.3 280.32 168.8 273.72 168.8ZM277.32 155.12C283.44 155.12 288.48 153.62 292.44 150.62C296.52 147.62 299.52 143.66 301.44 138.74C303.36 133.7 304.32 128.18 304.32 122.18C304.32 115.58 303.3 109.82 301.26 104.9C299.34 99.86 296.34 95.96 292.26 93.2C288.3 90.32 283.32 88.88 277.32 88.88C268.32 88.88 261.36 92.06 256.44 98.42C251.52 104.66 249.06 112.58 249.06 122.18C249.06 128.54 250.26 134.24 252.66 139.28C255.18 144.2 258.54 148.1 262.74 150.98C267.06 153.74 271.92 155.12 277.32 155.12ZM304.32 77H318.72V167H305.58C305.58 167 305.46 165.92 305.22 163.76C305.1 161.6 304.92 159.08 304.68 156.2C304.44 153.32 304.32 150.92 304.32 149V77ZM387.18 168.8C380.58 168.8 375.18 167.3 370.98 164.3C366.78 161.18 363.48 157.22 361.08 152.42C358.8 147.5 357.18 142.4 356.22 137.12C355.26 131.72 354.78 126.74 354.78 122.18C354.78 115.7 355.2 109.64 356.04 104C357 98.36 358.62 93.38 360.9 89.06C363.18 84.74 366.42 81.38 370.62 78.98C374.94 76.46 380.46 75.2 387.18 75.2C394.38 75.2 400.92 77.24 406.8 81.32C412.68 85.4 417.36 90.98 420.84 98.06C424.44 105.14 426.24 113.18 426.24 122.18C426.24 131.18 424.44 139.22 420.84 146.3C417.24 153.26 412.44 158.78 406.44 162.86C400.56 166.82 394.14 168.8 387.18 168.8ZM383.58 155.12C389.1 155.12 393.96 153.74 398.16 150.98C402.48 148.1 405.84 144.2 408.24 139.28C410.64 134.24 411.84 128.54 411.84 122.18C411.84 112.58 409.38 104.66 404.46 98.42C399.54 92.06 392.58 88.88 383.58 88.88C378.3 88.88 373.62 90.32 369.54 93.2C365.46 95.96 362.28 99.86 360 104.9C357.72 109.82 356.58 115.58 356.58 122.18C356.58 128.18 357.54 133.7 359.46 138.74C361.5 143.66 364.5 147.62 368.46 150.62C372.42 153.62 377.46 155.12 383.58 155.12ZM342.18 77H356.04L356.58 95.9V203H342.18V77ZM508.381 138.02H521.881C520.921 143.9 518.761 149.18 515.401 153.86C512.161 158.42 507.841 162.08 502.441 164.84C497.161 167.48 491.041 168.8 484.081 168.8C475.681 168.8 468.121 166.82 461.401 162.86C454.681 158.78 449.341 153.26 445.381 146.3C441.541 139.22 439.621 131.18 439.621 122.18C439.621 113.18 441.481 105.14 445.201 98.06C449.041 90.98 454.261 85.4 460.861 81.32C467.461 77.24 474.901 75.2 483.181 75.2C491.941 75.2 499.321 77.18 505.321 81.14C511.441 84.98 515.941 90.68 518.821 98.24C521.821 105.68 523.021 114.86 522.421 125.78H454.021C454.621 131.66 456.241 136.82 458.881 141.26C461.521 145.7 465.001 149.18 469.321 151.7C473.641 154.1 478.561 155.3 484.081 155.3C490.201 155.3 495.361 153.74 499.561 150.62C503.881 147.38 506.821 143.18 508.381 138.02ZM483.721 88.7C476.281 88.7 470.041 90.86 465.001 95.18C459.961 99.5 456.601 105.38 454.921 112.82H507.661C507.181 104.9 504.601 98.9 499.921 94.82C495.361 90.74 489.961 88.7 483.721 88.7ZM612.152 77L577.232 125.96L548.612 167H531.152L568.412 115.34L594.692 77H612.152ZM531.152 77H549.152L577.052 115.7L613.952 167H596.492L567.332 125.96L531.152 77Z" fill="white"/>
<mask id="mask0_82_221" style="mask-type:alpha" maskUnits="userSpaceOnUse" x="0" y="8" width="200" height="200">
<path d="M200 8H0V208H200V8Z" fill="white"/>
</mask>
<g mask="url(#mask0_82_221)">
<path d="M128.314 8H116.23V46.1189C116.23 60.1028 116.98 107.026 121.813 126.604C126.73 146.077 133.731 163.272 153.231 183.264C173.732 204.292 199.983 208.021 199.983 208.021V178.189C199.983 178.189 156.648 172.699 137.814 109.616C130.064 83.4092 128.564 43.3221 128.314 22.0874V8ZM62.1693 109.616C43.3351 172.699 0 178.189 0 178.189V208.021C0 208.021 26.2511 204.292 46.7519 183.264C66.2528 163.272 73.3364 146.077 78.1699 126.604C83.0868 107.026 83.7535 60.1028 83.7535 46.1189V8H71.6697V22.0874C71.4196 43.3221 70.0029 83.4092 62.1693 109.616V109.616ZM88.8287 208.041H111.246V8.02072H88.8287V208.041Z" fill="white"/>
</g>
</svg>
