<svg width="300" height="300" viewBox="0 0 300 300" fill="none" xmlns="http://www.w3.org/2000/svg">
<path d="M282.109 129.081C300.035 165.759 286.611 209.862 250.041 234.447C231.686 246.785 174.757 275 168.216 275C166.353 275 165.421 249.262 165.973 212.979C166.287 192.304 166.601 171.633 166.915 150.958C172.621 148.097 178.328 145.231 184.034 142.37C195.161 136.786 206.177 133.998 215.499 134.41C234.025 135.228 244.003 125.734 239.131 111.925C233.884 97.0438 222.388 95.2408 208.947 107.191C194.995 119.598 165.67 131.741 149.665 131.741C134.854 131.741 103.106 119.546 96.0475 111.143C82.5888 95.1255 63.7895 95.8348 59.6563 112.512C56.3167 125.982 66.8911 136.43 81.4469 134.036C88.8024 132.827 99.501 135.008 112.539 140.378C119.163 143.107 125.79 145.836 132.414 148.565C132.728 169.638 133.042 190.711 133.356 211.784C133.977 253.55 133.084 275 130.731 275C121.702 275 48.1711 234.699 36.265 223.224C10.5207 198.416 2.99958 163.282 16.8274 132.425C23.6861 117.118 92.801 46.26 114.626 32.1577C128.633 23.1079 168.695 22.5069 184.165 31.1129C202.357 41.2355 274.388 113.284 282.109 129.081ZM134.14 68.8461C130.344 72.6896 127.239 79.049 127.239 82.9799C127.239 91.1247 141.737 107.282 149.044 107.282C157.417 107.282 172.09 93.1548 172.09 85.0938C172.09 64.3212 148.554 54.2476 134.14 68.8461Z" fill="#87CA09"/>
</svg>
