<svg width="300" height="300" viewBox="0 0 300 300" fill="none" xmlns="http://www.w3.org/2000/svg">
<path d="M32.3227 88.8097C32.6349 88.4053 35.4656 84.9222 38.6138 81.0693C41.7617 77.2165 44.6774 73.6359 45.0933 73.1125C45.5092 72.5891 45.926 72.1647 46.0196 72.169C46.1131 72.1735 48.9501 75.9939 52.3242 80.6589C55.6984 85.3239 59.5117 90.5796 60.7986 92.3386C62.9146 95.2306 78.7602 117.11 85.4422 126.367C87.5881 129.339 88.117 130.169 88.0645 130.478C87.9926 130.9 86.3728 136.921 86.3061 137.014C86.2836 137.045 85.4113 136.321 84.3677 135.404C81.7169 133.077 77.6038 129.519 64.1753 117.936C57.7647 112.407 51.0256 106.576 49.2002 104.979C47.3747 103.382 44.0052 100.47 41.7126 98.5091C33.6825 91.6398 31.7549 89.9433 31.7549 89.7447C31.7549 89.6345 32.0102 89.2141 32.3227 88.8097Z" fill="#EE6E07"/>
<path d="M213.434 128.096C214.182 127.107 215.63 125.132 216.651 123.708C222.921 114.969 226.194 110.433 227.164 109.14C227.771 108.33 232.034 102.471 236.636 96.12C246.034 83.1509 253.054 73.5608 253.719 72.7848C253.866 72.6121 254.014 72.4393 254.162 72.2666C254.399 72.5407 254.635 72.8152 254.872 73.0893C256.047 74.4509 259.984 79.2027 263.01 82.9114C264.575 84.8298 266.462 87.1274 267.203 88.0172C267.652 88.5564 268.1 89.0958 268.55 89.635C268.258 89.9134 267.967 90.1921 267.676 90.4705C267.196 90.9298 264.823 93.0082 262.403 95.089C259.983 97.1701 257.239 99.5378 256.305 100.351C255.371 101.164 250.091 105.718 244.572 110.472C235.221 118.526 217.967 133.408 215.05 135.937C214.263 136.619 213.745 136.971 213.708 136.85C213.523 136.243 212.071 130.227 212.072 130.075C212.073 129.976 212.686 129.085 213.434 128.096Z" fill="#EE6E07"/>
<path d="M215.682 168.122C220.63 163.868 228.073 157.605 234.459 152.324C235.775 151.235 239.179 148.398 242.024 146.019C244.868 143.64 250.148 139.26 253.757 136.286C261.969 129.517 264.46 127.461 271.573 121.572C278.629 115.732 281.093 113.733 281.238 113.733C281.346 113.733 281.64 114.875 283.629 123.023C284.109 124.991 284.914 128.262 285.417 130.292C285.92 132.322 286.332 134.088 286.332 134.217C286.332 134.371 285.108 135.041 282.742 136.18C280.768 137.131 274.984 139.947 269.89 142.438C264.795 144.929 259.654 147.43 258.465 147.997C255.528 149.398 248.171 152.971 236.56 158.638C231.221 161.245 226.835 163.377 226.814 163.377C226.793 163.377 224.11 164.675 220.852 166.262C217.595 167.848 214.886 169.099 214.833 169.041C214.78 168.983 215.162 168.569 215.682 168.122Z" fill="#EE6E07"/>
<path d="M13.9523 133.91C14.5383 131.397 15.9694 125.388 16.9263 121.423C17.5932 118.66 18.262 115.85 18.4121 115.18C18.5625 114.51 18.7397 113.9 18.8061 113.824C18.9882 113.615 19.4113 113.951 30.1949 122.871C32.7759 125.006 35.7721 127.473 36.8525 128.352C37.9332 129.232 40.9551 131.733 43.5682 133.91C48.7628 138.24 53.2872 141.992 59.4656 147.094C73.3811 158.587 75.385 160.258 81.6196 165.565C85.1972 168.611 86.2078 169.536 85.6916 169.29C83.9708 168.471 75.0138 164.148 69.6549 161.55C67.0226 160.274 63.3406 158.492 61.4726 157.591C57.324 155.589 46.7126 150.411 30.8276 142.638C24.2471 139.418 17.734 136.244 16.3542 135.586C14.9743 134.927 13.8535 134.349 13.8633 134.302C13.8732 134.254 13.9131 134.078 13.9523 133.91Z" fill="#EE6E07"/>
<path d="M65.3745 53.3321C67.4741 51.8445 71.3803 49.0794 74.0552 47.1871C76.73 45.2952 79.3601 43.4244 79.9001 43.0304C80.4401 42.6363 80.9265 42.3145 80.9808 42.3154C81.0876 42.3176 81.5424 43.2921 88.867 59.2169C91.0293 63.9189 92.118 66.4551 92.118 66.7921C92.118 66.9482 91.9068 67.4045 91.6487 67.8061C89.9563 70.4382 87.9734 75.3516 87.1623 78.9224C86.5763 81.5017 85.9442 85.83 85.6953 88.9697C85.6595 89.4205 85.624 89.8711 85.5882 90.3219C85.4916 90.2011 85.3949 90.0802 85.2983 89.9597C84.9688 89.5474 81.234 84.3488 79.4592 81.8308C78.096 79.8975 75.2844 75.9162 73.4904 73.3791C72.0405 71.329 65.0161 61.142 62.9696 58.1219C62.4984 57.4267 62.0278 56.7317 61.5566 56.0368C62.8294 55.1352 64.1018 54.2335 65.3745 53.3321Z" fill="#EE6E07"/>
<path d="M208.932 64.3943C212.504 56.5455 218.909 42.6748 219.113 42.343C219.159 42.268 224.34 45.8591 229.287 49.3938C236.199 54.3324 238.409 55.9174 238.516 56.0124C238.623 56.1071 236.542 59.1695 231.992 65.6126C230.047 68.3667 228.664 70.3422 226.45 73.5311C225.432 74.9968 223.161 78.2519 221.402 80.7645C219.644 83.277 217.558 86.2579 216.768 87.3888C215.977 88.5194 215.164 89.6445 214.962 89.8889C214.839 90.037 214.716 90.1852 214.593 90.3333C214.531 89.6269 214.469 88.9201 214.407 88.2137C213.836 81.7171 212.878 77.3239 211.042 72.7697C210.316 70.9682 208.938 68.1721 208.378 67.3637C208.204 67.1123 208.063 66.7698 208.063 66.6023C208.064 66.4347 208.455 65.441 208.932 64.3943Z" fill="#EE6E07"/>
<path d="M10.0884 158.656C10.2419 158.656 16.2943 161.424 24.421 165.21C28.4118 167.07 32.754 169.089 34.07 169.698C35.3859 170.306 37.2271 171.163 38.1611 171.6C39.0951 172.039 40.2416 172.567 40.7084 172.774C41.1753 172.982 43.0514 173.857 44.8768 174.72C46.7022 175.582 50.6624 177.434 53.6766 178.834C69.2112 186.053 77.9147 190.219 77.9147 190.438C77.9147 190.484 77.6541 190.479 77.3358 190.427C75.9846 190.205 67.1227 188.623 63.1712 187.899C60.6028 187.428 55.3124 186.5 51.3942 185.834C47.0276 185.091 43.2517 184.422 29.1297 181.886C25.6061 181.253 21.5069 180.525 20.0211 180.268C18.5353 180.01 16.5901 179.673 15.6984 179.517C14.8067 179.363 13.5735 179.156 12.9575 179.059C12.0065 178.908 11.8274 178.832 11.7712 178.553C11.7345 178.372 11.5619 176.683 11.388 174.798C11.0783 171.449 11.011 170.68 10.5201 164.9C10.3886 163.35 10.2169 161.397 10.1388 160.56C9.96369 158.682 9.96277 158.656 10.0884 158.656Z" fill="#EE6E07"/>
<path d="M224.704 189.197C225.976 188.57 230.407 186.469 239.399 182.228C243.031 180.515 255.376 174.764 257.308 173.885C258.971 173.128 262.156 171.636 271.357 167.303C275.429 165.385 286.64 160.194 288.223 159.493C289.136 159.089 289.926 158.801 289.977 158.852C290.029 158.903 289.992 159.959 289.894 161.199C288.808 175.051 288.498 178.66 288.389 178.756C288.319 178.818 286.212 179.225 283.707 179.66C281.203 180.095 274.116 181.343 267.96 182.434C261.804 183.525 254.267 184.859 251.21 185.399C248.153 185.938 244.367 186.614 242.796 186.901C241.225 187.187 237.925 187.773 235.463 188.201C233 188.63 229.7 189.218 228.129 189.51C224.883 190.113 223.427 190.284 223.298 190.077C223.249 189.998 223.881 189.602 224.704 189.197Z" fill="#EE6E07"/>
<path d="M164.843 51.298C164.913 50.8374 165.18 48.8501 165.437 46.8816C165.695 44.9134 166.186 41.2473 166.529 38.7348C167.422 32.2067 168.229 25.8662 168.229 25.3716C168.229 25.0104 168.28 24.9587 168.576 25.0243C168.767 25.0665 171.216 25.65 174.018 26.3206C178.406 27.3708 189.005 29.8966 193.277 30.9103C194.02 31.0867 194.628 31.2868 194.628 31.3554C194.628 31.4762 193.534 34.6111 191.229 41.0949C190.618 42.812 189.31 46.5704 188.321 49.4473C187.722 51.1908 187.122 52.9343 186.523 54.6775C186.189 54.649 185.854 54.6201 185.519 54.5916C183.18 54.3912 169.898 53.5973 166.8 53.4726C166.093 53.444 165.385 53.4158 164.678 53.3873C164.684 53.1787 164.69 52.9698 164.697 52.7613C164.707 52.417 164.773 51.7585 164.843 51.298Z" fill="#EE6E07"/>
<path d="M107.981 30.6634C114.019 29.2568 124.199 26.8454 128.058 25.907C130.982 25.1957 131.678 25.0712 131.784 25.2397C131.855 25.3539 131.958 25.8669 132.012 26.3803C132.067 26.8934 132.18 27.7932 132.265 28.3795C132.64 30.9691 134.021 41.3762 134.276 43.5314C134.36 44.2433 134.527 45.5111 134.648 46.3487C135.168 49.9632 135.551 53.1257 135.477 53.1989C135.404 53.2711 132.907 53.4478 125.697 53.8914C124.253 53.98 120.957 54.1847 118.372 54.3459C115.787 54.5074 113.652 54.6203 113.628 54.5966C113.497 54.467 105.55 31.5905 105.55 31.3419C105.55 31.28 106.644 30.9746 107.981 30.6634Z" fill="#EE6E07"/>
<path d="M288.814 245.512C289.004 245.924 289.105 246.495 289.107 247.164C289.113 249.071 288.183 250.694 286.669 251.42C285.332 252.061 284.378 251.943 277.995 250.353C259.69 245.793 245.852 243.747 229.364 243.16C220.38 242.841 212.9 243.233 205.589 244.406C191.051 246.74 178.798 251.687 172.389 257.81C170.658 259.464 169.905 260.63 168.614 263.654C167.407 266.481 165.01 269.498 162.511 271.335C159.125 273.824 155.095 274.999 149.946 274.999C146.038 274.999 143.3 274.426 140.208 272.961C135.955 270.944 133.328 268.031 131.245 263.023C130.344 260.855 129.669 259.797 128.272 258.368C122.024 251.975 109.22 246.617 95.051 244.469C88.2922 243.443 83.6431 243.117 75.7532 243.112C68.4833 243.109 63.0614 243.425 54.9887 244.323C44.0414 245.542 35.0217 247.212 22.4528 250.348C16.0616 251.942 15.035 252.067 13.614 251.424C11.9964 250.693 11.0559 249.373 10.95 247.687C10.8558 246.184 11.2893 245.065 12.3811 243.988C13.3463 243.036 13.4356 243.006 20.9472 241.137C40.6147 236.244 55.4774 234.112 72.2024 233.785C83.3186 233.568 93.1376 234.391 101.767 236.263C112.737 238.643 121.406 242.05 128.861 246.91C134.811 250.79 137.464 253.828 139.662 259.284C140.956 262.493 143.182 264.48 146.465 265.357C147.856 265.728 152.433 265.731 153.83 265.363C156.18 264.742 158.167 263.26 159.492 261.141C159.779 260.681 160.337 259.546 160.73 258.618C162.094 255.398 163.576 253.239 165.974 250.977C174.534 242.905 191.585 236.456 209.526 234.504C218.827 233.492 231.119 233.52 242.796 234.58C254.018 235.598 267.217 237.952 279.859 241.188C285.183 242.551 285.843 242.749 286.73 243.254C287.525 243.706 288.437 244.694 288.814 245.512Z" fill="#0A95E4"/>
<path d="M281.791 231.488C282.421 232.503 282.936 233.381 282.936 233.438C282.936 233.889 282.395 233.817 279.306 232.951C268.012 229.783 262.934 228.652 253.448 227.189C242.725 225.536 234.73 224.955 224.656 225.097C215.432 225.228 208.006 226.011 199.646 227.735C193.756 228.949 186.1 231.294 180.777 233.513C177.256 234.981 170.281 238.52 168.152 239.918C167.982 240.03 166.87 240.76 165.682 241.54C162.383 243.706 158.902 246.463 156.153 249.088C155.667 249.552 155.218 249.881 155.156 249.82C155.094 249.759 155.335 249.129 155.691 248.421C158.935 241.97 166.12 234.775 174.286 229.802C184.567 223.54 198.272 219.132 212.46 217.523C226.024 215.984 238.688 216.213 254.066 218.274C262.283 219.374 271.332 221.235 274.555 222.485C276.113 223.089 278.176 225.657 281.791 231.488Z" fill="#0A95E4"/>
<path d="M143.927 247.868C144.471 248.845 144.917 249.685 144.917 249.733C144.918 250.009 144.694 249.921 144.181 249.443C138.046 243.729 132.246 239.703 124.848 236.022C113.106 230.181 100.971 226.987 84.4765 225.398C80.4768 225.013 66.5981 225.015 62.0138 225.402C50.617 226.364 40.3999 228.016 29.7222 230.621C26.2346 231.472 21.5781 232.721 19.5119 233.359C17.4719 233.989 16.8658 233.784 17.4997 232.676C18.0215 231.764 21.2774 226.712 22.0061 225.683C23.7315 223.248 24.9863 222.517 29.2074 221.488C39.1522 219.061 47.9767 217.755 60.7016 216.825C61.8903 216.738 65.4683 216.625 68.6523 216.574C92.7252 216.187 112.553 221.085 127.935 231.219C131.238 233.395 133.34 235.085 135.974 237.681C139.53 241.186 141.877 244.192 143.927 247.868Z" fill="#0A95E4"/>
<path d="M144.362 233.732C144.978 234.864 145.192 235.406 145.022 235.406C144.995 235.406 144.561 235.021 144.057 234.551C140.194 230.94 137.697 228.931 133.724 226.239C121.706 218.097 106.854 212.858 89.8023 210.746C84.4853 210.087 81.4814 209.921 74.9043 209.922C65.3638 209.924 58.2952 210.493 47.7329 212.113C44.3448 212.632 43.6977 212.661 43.3068 212.312C42.6874 211.759 42.667 211.797 46.4059 206.638C48.7988 203.337 49.3351 202.807 50.6563 202.442C53.1891 201.741 67.9864 201.341 76.0369 201.756C83.7931 202.157 91.6296 203.129 97.5214 204.422C114.06 208.051 127.394 214.605 136.519 223.592C139.866 226.888 142.468 230.252 144.362 233.732Z" fill="#0A95E4"/>
<path d="M256.123 209.945C257.062 211.301 257.179 211.777 256.691 212.259C256.287 212.657 255.779 212.648 253.007 212.191C242.393 210.442 232.799 209.69 223.499 209.876C216.549 210.015 211.928 210.416 205.624 211.426C194.994 213.128 185.782 215.983 176.643 220.407C168.853 224.178 162.953 228.131 156.654 233.8C155.849 234.525 155.166 235.047 155.137 234.96C154.967 234.457 157.638 230.257 159.878 227.506C167.033 218.716 178.861 211.391 192.946 207.024C202.256 204.138 211.242 202.582 222.949 201.827C227.725 201.52 238.741 201.521 243.574 201.831C249.857 202.233 250.251 202.33 251.482 203.764C252.307 204.725 254.898 208.177 256.123 209.945Z" fill="#0A95E4"/>
<path d="M100.3 90.586C100.326 90.586 100.352 90.586 100.379 90.586C100.422 90.586 100.378 90.0893 100.281 89.4821C100.184 88.875 100.11 87.5042 100.117 86.4365C100.124 85.3099 100.068 84.4947 99.8369 84.4947C99.9409 83.9884 100.045 83.4823 100.149 82.9759C100.771 79.9476 101.884 77.2465 103.495 74.857C104.512 73.3478 106.98 70.8669 108.595 69.7305C110.262 68.5581 112.887 67.2888 114.735 66.762C117.835 65.878 116.158 65.9177 150.373 65.9171C181.27 65.9165 181.871 65.922 183.363 66.2219C189.821 67.5201 195.254 71.5548 198.094 77.1609C198.784 78.524 199.607 80.9257 199.981 82.6674C200.372 84.4884 200.373 88.633 199.982 90.4339C199.365 93.2819 198.218 95.8703 196.473 98.3524C195.931 99.123 193.428 101.7 188.781 106.274C181.936 113.01 158.707 135.708 146.152 147.929C142.543 151.442 139.243 154.659 138.819 155.077C138.561 155.331 138.304 155.585 138.047 155.839C145.38 155.812 152.713 155.786 160.046 155.759C167.379 155.732 174.713 155.706 182.046 155.679C182.406 155.56 182.766 155.441 183.126 155.322C186.995 154.045 189.684 151.421 191.022 147.615C191.409 146.514 191.451 146.193 191.457 144.265C191.462 142.443 191.411 141.969 191.101 140.997C190.374 138.713 189.138 136.765 187.446 135.235C186.194 134.104 183.693 132.818 182.457 132.671C182.183 132.638 181.908 132.606 181.634 132.573C179.308 134.865 176.983 137.157 174.657 139.449C166.992 147.003 167.084 146.93 165.218 146.93C162.664 146.93 160.534 144.837 160.691 142.482C160.821 140.536 160.777 140.589 169.016 132.578C173.129 128.579 176.865 125.033 177.318 124.697C178.545 123.788 179.486 123.571 181.733 123.68C184.375 123.809 186.266 124.348 189.065 125.77C193.718 128.136 197.632 132.679 199.307 137.659C200.134 140.119 200.384 141.651 200.384 144.265C200.384 145.989 200.307 147.058 200.12 147.92C198.206 156.75 191.546 163.054 182.74 164.373C180.469 164.714 119.192 164.703 117.186 164.362C113.555 163.744 110.156 162.311 107.644 160.339C105.393 158.572 103.341 156.11 102.109 153.696C98.4792 146.587 98.9708 139.254 103.534 132.453C104.381 131.191 106.092 129.447 117.644 118.071C124.875 110.951 137.773 98.2902 146.306 89.9366C151.478 84.8739 156.65 79.8113 161.822 74.7486C154.617 74.7613 147.413 74.7738 140.208 74.7868C133.003 74.7996 125.799 74.812 118.594 74.8248C118.105 74.9887 117.617 75.1524 117.128 75.3163C115.044 76.0142 113.868 76.741 112.26 78.3246C110.675 79.8862 109.814 81.3192 109.236 83.3614C108.77 85.0051 108.778 87.8018 109.254 89.5201C109.216 89.5204 109.177 89.5204 109.138 89.5207C108.725 89.5225 109.8 91.9291 110.866 93.3896C111.82 94.6972 113.077 95.86 113.268 95.6113C113.319 95.662 113.371 95.713 113.423 95.7637C113.453 95.8424 113.484 95.921 113.515 95.9996C113.566 96.1296 113.67 96.1982 113.886 96.0682C113.937 96.1189 113.989 96.1699 114.04 96.2206C114.041 96.275 114.043 96.3296 114.044 96.3843C114.046 96.4741 114.116 96.5084 114.349 96.3727C114.648 96.5236 114.947 96.6745 115.247 96.8251C115.74 97.074 116.717 97.4286 117.416 97.6132C117.84 97.7249 118.263 97.8369 118.687 97.9487C121.065 95.611 123.442 93.2737 125.82 90.936C132.579 84.2895 133 83.9052 133.878 83.5846C136.138 82.7594 138.455 83.754 139.53 86.0106C139.958 86.9077 139.89 88.6682 139.389 89.6831C138.888 90.698 123.206 105.916 122.145 106.416C121.102 106.909 119.107 107.008 117.23 106.661C110.759 105.464 104.873 101.089 101.899 95.2643C101.224 93.9419 100.3 91.2387 100.3 90.586ZM101.998 83.4288C101.895 83.835 101.793 84.2409 101.689 84.6472C101.713 85.4465 101.735 86.2462 101.759 87.0455C101.835 89.6913 102.068 91.0168 102.773 92.8153C103.49 94.6441 104.969 97.1748 105.695 97.8154C106.036 98.1162 106.036 98.1162 106.344 97.7395C106.599 97.4289 106.627 97.2738 106.507 96.8588C106.332 96.2525 106.654 95.7722 107.03 96.0801C107.147 96.176 107.356 96.2121 107.493 96.1599C107.763 96.0576 108.896 96.3314 109.225 96.5783C109.381 96.6951 109.466 96.5825 109.591 96.0946C109.684 95.7343 109.847 95.4592 109.968 95.4592C110.318 95.4592 110.218 95.1994 109.426 94.0454C107.743 91.5933 107.388 90.5365 106.938 86.6269C106.989 86.1572 107.039 85.6876 107.09 85.2179C107.173 84.4431 107.354 83.4325 107.492 82.9719C107.864 81.7333 108.967 79.6121 110.026 78.099C110.219 77.9184 110.412 77.738 110.605 77.5574C113.05 75.2695 115.314 74.0333 118.096 73.4665C119.142 73.2531 121.898 73.2273 142.401 73.2388C150.11 73.2431 157.818 73.2473 165.527 73.2516C163.434 75.3412 161.341 77.4308 159.248 79.5204C155.795 82.9683 150.289 88.4788 141.057 97.7434C140.329 98.4666 139.601 99.1901 138.873 99.9132C137.671 101.107 135.552 103.197 131.64 107.032C131.138 107.504 130.636 107.975 130.135 108.446C129.307 109.223 127.776 110.639 126.734 111.592C125.691 112.546 124.863 113.4 124.894 113.491C124.945 113.643 130.021 115.081 130.561 115.097C130.69 115.1 131.784 114.11 135.191 110.687C139.41 106.576 143.63 102.464 147.85 98.3524C148.326 97.9101 148.802 97.4675 149.278 97.0251C151.024 95.4028 155.815 90.77 163.983 82.808C167.747 79.1391 170.611 76.4736 171.316 75.983C173.361 74.5616 175.066 73.8336 177.26 73.445C184.257 72.206 190.615 76.3121 192.651 83.3848C192.93 84.3518 192.992 84.9507 192.986 86.6269C192.98 88.4068 192.925 88.8622 192.568 90.0207C192.036 91.7494 191.291 93.195 190.307 94.4106C189.875 94.9452 186.327 98.5865 175.33 109.621C174.591 110.345 173.852 111.068 173.113 111.791C170.064 114.776 169.378 115.537 169.568 115.724C169.741 115.895 171.816 115.567 175.823 114.735C176.631 114.567 177.439 114.4 178.247 114.232C179.745 112.695 181.243 111.158 182.74 109.621C182.775 109.621 182.81 109.621 182.845 109.621C182.901 109.621 185.604 107.035 188.849 103.873C194.898 97.9793 195.591 97.193 196.767 94.8949C197.484 93.491 197.963 92.1519 198.344 90.4809C198.79 88.5258 198.832 85.2003 198.438 83.24C197.898 80.5602 196.641 77.613 195.057 75.3087C193.032 72.3648 189.103 69.5119 185.42 68.3128C182.606 67.3962 184.31 67.4393 150.724 67.4396C129.264 67.4399 119.565 67.4909 118.594 67.6081C114.506 68.1024 110.888 69.7636 108.019 72.4647C107.705 72.7564 107.39 73.0482 107.075 73.3402C104.442 75.7832 102.756 79.1333 101.998 83.4288ZM108.799 142.286C108.601 143.537 108.734 145.749 109.091 147.125C109.985 150.574 112.582 153.487 116.045 154.924C119.738 156.458 124.465 155.827 127.757 153.363C128.212 153.023 133.562 147.855 139.645 141.879C145.729 135.902 156.889 124.986 164.446 117.619C172.003 110.252 180.689 101.756 183.747 98.738C189.763 92.8016 190.08 92.4166 190.88 90.0532C191.253 88.9521 191.294 88.6151 191.297 86.5507C191.301 84.3736 191.278 84.2009 190.812 82.8733C188.944 77.5632 184.368 74.5094 178.693 74.7856C176.427 74.8958 174.098 75.7714 172.202 77.2256C171.713 77.6008 167.718 81.4227 163.325 85.7188C158.932 90.0146 147.313 101.373 137.506 110.959C110.446 137.409 111.108 136.74 109.975 138.749C109.466 139.652 108.989 141.084 108.799 142.286ZM125.17 94.1586C124.483 94.8785 123.921 95.5357 123.921 95.6192C123.921 95.703 124.087 95.8339 124.291 95.9101C124.495 95.9866 124.774 96.2076 124.913 96.4013C125.075 96.629 125.204 96.6945 125.276 96.5861C125.337 96.4942 125.561 96.4344 125.773 96.4532C125.986 96.4717 126.247 96.4174 126.356 96.3321C126.685 96.0725 126.768 96.35 126.461 96.6851C126.224 96.9438 126.206 97.0506 126.359 97.2929C126.666 97.7787 126.594 98.4566 126.225 98.5519C126.031 98.6017 125.916 98.7444 125.934 98.9123C125.994 99.4794 125.92 99.7019 125.657 99.752C125.453 99.7909 125.385 99.9597 125.378 100.448C125.372 100.803 125.428 101.094 125.501 101.094C125.791 101.094 137.375 89.4639 137.688 88.8583C138.319 87.6387 137.991 86.4975 136.765 85.6481C136.25 85.2908 135.96 85.2003 135.358 85.2094C134.932 85.2158 134.446 85.3266 134.249 85.4623C134.057 85.5956 132.536 87.0255 130.871 88.64C129.205 90.2548 127.522 91.8626 127.131 92.2129C126.74 92.5636 125.857 93.4391 125.17 94.1586Z" fill="#451772"/>
<path d="M141.057 97.7436C150.289 88.479 155.795 82.9685 159.248 79.5206C161.341 77.431 163.434 75.3414 165.527 73.2518C157.819 73.2475 150.11 73.2433 142.402 73.239C121.899 73.2275 119.143 73.2533 118.096 73.4667C115.314 74.0335 113.051 75.2698 110.605 77.5576C110.412 77.7382 110.219 77.9186 110.027 78.0992C110.027 78.0619 110.027 78.0245 110.027 77.9869C110.027 77.9253 110.651 77.2571 111.413 76.5023C112.176 75.7473 112.801 75.0023 112.803 74.8468C112.805 74.6529 112.882 74.593 113.048 74.6559C113.464 74.8132 113.916 74.4728 113.796 74.0924C113.738 73.9091 113.613 73.7087 113.518 73.6474C113.413 73.5794 113.462 73.5344 113.642 73.5329C113.805 73.5317 114.068 73.6455 114.225 73.7861C114.595 74.1158 114.979 73.8362 114.666 73.4646C114.5 73.2667 114.545 73.2278 114.979 73.1953C115.467 73.1586 115.476 73.1458 115.233 72.8492C115.094 72.6795 114.977 72.3866 114.974 72.1983C114.97 72.0098 114.89 71.8556 114.797 71.8556C114.704 71.8556 114.425 71.6415 114.177 71.3798C113.691 70.8665 113.726 70.6816 114.409 70.1643C114.698 69.9457 114.708 69.8907 114.506 69.65C114.3 69.4053 114.314 69.3792 114.662 69.3619C114.933 69.3485 115.058 69.2438 115.093 69.0003C115.163 68.5121 114.817 68.558 113.269 69.2423C111.638 69.9624 110.259 70.8091 108.02 72.4649C110.889 69.7638 114.506 68.1026 118.595 67.6083C119.565 67.4912 129.264 67.4401 150.725 67.4398C184.31 67.4395 182.607 67.3964 185.42 68.313C189.103 69.5122 193.032 72.365 195.057 75.3089C196.642 77.6132 197.898 80.5604 198.438 83.2402C198.833 85.2005 198.79 88.526 198.344 90.4812C197.964 92.1521 197.485 93.4913 196.767 94.8951C195.591 97.1932 194.898 97.9795 188.849 103.873C185.604 107.035 182.902 109.622 182.845 109.622C182.81 109.622 182.775 109.622 182.741 109.622C183.747 108.594 184.753 107.566 185.76 106.538C188.656 103.58 188.775 103.434 188.686 102.959C188.606 102.532 188.637 102.464 188.909 102.464C189.315 102.464 189.319 102.219 188.916 102.115C188.69 102.057 188.635 101.96 188.713 101.755C188.804 101.515 188.784 101.503 188.577 101.669C188.378 101.829 188.319 101.822 188.244 101.631C188.031 101.083 186.446 101.565 186.446 102.177C186.446 102.335 186.342 102.464 186.214 102.464C185.909 102.464 185.92 102.753 186.238 103.1C186.411 103.288 186.432 103.378 186.302 103.378C186.196 103.378 185.977 103.224 185.815 103.035C185.534 102.709 185.51 102.706 185.305 102.966C185.154 103.158 184.975 103.211 184.708 103.145C184.404 103.07 184.309 103.118 184.239 103.38C184.173 103.631 184.077 103.686 183.834 103.61C183.603 103.538 183.406 103.628 183.112 103.939C182.89 104.175 182.628 104.354 182.532 104.337C182.434 104.32 182.167 104.55 181.938 104.847C181.799 105.028 181.659 105.208 181.52 105.389C181.355 105.273 181.191 105.157 181.026 105.041C180.861 104.926 180.697 104.81 180.532 104.695C178.798 106.337 177.064 107.979 175.33 109.622C186.328 98.5867 189.875 94.9455 190.307 94.4108C191.292 93.1953 192.036 91.7496 192.568 90.0209C192.925 88.8624 192.981 88.407 192.987 86.6271C192.992 84.9509 192.93 84.352 192.652 83.385C190.616 76.3123 184.258 72.2062 177.26 73.4452C175.066 73.8338 173.361 74.5618 171.317 75.9832C170.611 76.4738 167.747 79.1393 163.983 82.8082C155.816 90.7702 151.024 95.403 149.278 97.0254C148.802 97.4677 148.326 97.9103 147.85 98.3527C147.85 98.3159 147.85 98.2795 147.85 98.2428C147.85 98.1823 148.891 97.1031 150.163 95.8444C152.485 93.5474 153.018 92.8012 151.977 93.3061C151.493 93.541 151.459 93.5371 151.118 93.2007C150.831 92.9169 150.67 92.8716 150.272 92.9615C150.001 93.0225 149.53 93.0784 149.225 93.0857C148.919 93.0929 148.563 93.1865 148.432 93.2933C148.238 93.4521 148.18 93.4472 148.109 93.2669C148.054 93.1257 147.902 93.0778 147.686 93.1336C147.464 93.191 147.299 93.1348 147.206 92.9694C147.024 92.6503 146.716 92.6509 146.185 92.9721C145.955 93.1118 144.707 94.2423 141.057 97.7436Z" fill="#451772"/>
<path d="M131.64 107.032C135.552 103.197 137.671 101.107 138.872 99.9132C139.601 99.1901 140.329 98.4666 141.057 97.7435C144.706 94.2422 145.954 93.1116 146.185 92.9719C146.715 92.6507 147.024 92.6501 147.205 92.9692C147.299 93.1347 147.463 93.1908 147.685 93.1335C147.902 93.0776 148.054 93.1256 148.109 93.2667C148.179 93.4471 148.238 93.4519 148.432 93.2931C148.562 93.1863 148.919 93.0928 149.224 93.0855C149.53 93.0782 150.001 93.0223 150.271 92.9613C150.67 92.8714 150.83 92.9167 151.118 93.2005C151.459 93.5369 151.492 93.5409 151.977 93.3059C153.017 92.801 152.484 93.5472 150.163 95.8442C148.891 97.1029 147.85 98.1822 147.85 98.2426C147.85 98.2793 147.85 98.3157 147.85 98.3525C143.63 102.464 139.41 106.576 135.19 110.687C134.814 110.333 134.642 110.23 134.565 110.23C134.483 110.23 134.483 110.082 134.566 109.866C134.707 109.503 134.625 108.86 134.439 108.86C134.385 108.86 134.332 108.706 134.321 108.517C134.306 108.241 134.214 108.177 133.85 108.187C133.579 108.195 133.422 108.271 133.458 108.377C133.494 108.486 133.363 108.541 133.113 108.521C132.845 108.499 132.692 108.387 132.662 108.192C132.597 107.772 132.021 107.592 131.714 107.895C131.58 108.027 131.423 108.088 131.364 108.03C131.306 107.973 131.415 107.809 131.608 107.666C131.859 107.479 131.912 107.354 131.798 107.219C131.745 107.157 131.692 107.095 131.64 107.032ZM134.882 109.545C134.797 109.597 134.727 109.674 134.727 109.716C134.727 109.757 134.797 109.749 134.882 109.697C134.967 109.646 135.036 109.569 135.036 109.527C135.036 109.485 134.967 109.493 134.882 109.545Z" fill="#451772"/>
<path d="M101.999 83.4289C102.757 79.1334 104.443 75.7833 107.076 73.3403C107.391 73.0482 107.705 72.7565 108.02 72.4647C110.259 70.8089 111.639 69.9622 113.269 69.2421C114.817 68.5578 115.164 68.512 115.094 69.0001C115.059 69.2436 114.933 69.3484 114.662 69.3617C114.314 69.379 114.3 69.4051 114.506 69.6498C114.709 69.8906 114.699 69.9455 114.41 70.1641C113.727 70.6814 113.691 70.8663 114.177 71.3797C114.425 71.6414 114.704 71.8554 114.797 71.8554C114.891 71.8554 114.97 72.0096 114.974 72.1982C114.978 72.3864 115.095 72.6794 115.234 72.8491C115.477 73.1457 115.467 73.1584 114.979 73.1952C114.545 73.2276 114.5 73.2665 114.667 73.4644C114.979 73.836 114.595 74.1156 114.225 73.7859C114.068 73.6454 113.806 73.5315 113.643 73.5328C113.463 73.5343 113.414 73.5792 113.518 73.6472C113.613 73.7085 113.738 73.9089 113.796 74.0923C113.916 74.4727 113.464 74.813 113.048 74.6557C112.882 74.5929 112.805 74.6527 112.803 74.8467C112.801 75.0021 112.176 75.7471 111.414 76.5022C110.651 77.2569 110.027 77.9251 110.027 77.9867C110.027 78.0244 110.027 78.0617 110.027 78.0991C108.968 79.6122 107.865 81.7333 107.493 82.972C107.355 83.4325 107.174 84.4432 107.091 85.218C107.04 85.6876 106.99 86.1573 106.939 86.6269C106.537 86.5015 106.487 86.3755 106.55 86.1794C106.652 85.8628 106.333 85.7325 105.55 85.7705C105.217 85.7866 105.161 85.721 105.144 85.2945C105.133 85.0221 105.042 84.7993 104.942 84.7993C104.841 84.7993 104.805 84.8849 104.86 84.9896C104.919 85.1011 104.811 85.0759 104.599 84.9295C104.4 84.7917 104.193 84.7055 104.139 84.7377C104.085 84.7699 103.961 84.7009 103.863 84.585C103.674 84.3603 103.533 84.353 103.356 84.5586C103.296 84.6284 103.157 84.6244 103.048 84.5494C102.938 84.4745 102.744 84.4143 102.617 84.4159C102.467 84.4177 102.401 84.3017 102.431 84.0886C102.459 83.8867 102.384 83.7392 102.237 83.7079C102.105 83.6803 101.997 83.6059 101.998 83.543C101.998 83.5051 101.999 83.4668 101.999 83.4289ZM104.52 84.6472C104.492 84.6472 104.469 84.6855 104.469 84.7322C104.469 84.779 104.539 84.775 104.623 84.7234C104.708 84.6715 104.778 84.5874 104.778 84.5367C104.778 84.4857 104.732 84.4896 104.675 84.5455C104.618 84.6014 104.549 84.6472 104.52 84.6472Z" fill="#451772"/>
<path d="M182.74 109.621C181.242 111.158 179.744 112.695 178.246 114.231C177.438 114.399 176.631 114.567 175.823 114.734C171.815 115.567 169.741 115.895 169.567 115.723C169.377 115.536 170.063 114.775 173.113 111.791C173.852 111.068 174.591 110.344 175.33 109.621C177.064 107.979 178.798 106.336 180.532 104.694C180.696 104.81 180.861 104.925 181.026 105.041C181.19 105.156 181.355 105.272 181.52 105.388C181.659 105.207 181.798 105.027 181.937 104.847C182.166 104.549 182.434 104.319 182.531 104.336C182.628 104.353 182.889 104.174 183.111 103.939C183.405 103.628 183.603 103.538 183.834 103.61C184.076 103.685 184.172 103.631 184.239 103.379C184.308 103.117 184.403 103.069 184.707 103.144C184.974 103.211 185.153 103.157 185.304 102.966C185.509 102.705 185.534 102.709 185.814 103.035C185.976 103.223 186.195 103.377 186.301 103.377C186.431 103.377 186.411 103.287 186.238 103.099C185.92 102.752 185.909 102.464 186.214 102.464C186.341 102.464 186.445 102.334 186.445 102.177C186.445 101.564 188.031 101.082 188.244 101.63C188.318 101.821 188.377 101.828 188.576 101.668C188.783 101.502 188.803 101.515 188.712 101.754C188.635 101.959 188.689 102.057 188.915 102.115C189.319 102.219 189.314 102.464 188.908 102.464C188.636 102.464 188.605 102.532 188.685 102.959C188.774 103.433 188.655 103.579 185.759 106.537C184.753 107.565 183.746 108.593 182.74 109.621Z" fill="#451772"/>
<path d="M125.17 94.1588C125.858 93.4393 126.74 92.5638 127.131 92.2131C127.522 91.8628 129.205 90.255 130.871 88.6402C132.537 87.0257 134.057 85.5958 134.25 85.4625C134.446 85.3268 134.933 85.216 135.358 85.2096C135.96 85.2005 136.25 85.291 136.766 85.6483C137.991 86.4977 138.319 87.6389 137.688 88.8585C137.375 89.4641 125.792 101.094 125.502 101.094C125.428 101.094 125.373 100.803 125.378 100.449C125.385 99.9598 125.453 99.791 125.658 99.7522C125.921 99.7021 125.994 99.4796 125.934 98.9125C125.916 98.7446 126.031 98.6019 126.225 98.5521C126.595 98.4568 126.666 97.7788 126.359 97.2931C126.206 97.0508 126.224 96.944 126.461 96.6853C126.769 96.3502 126.686 96.0727 126.356 96.3322C126.248 96.4176 125.986 96.4719 125.773 96.4534C125.561 96.4346 125.337 96.4944 125.276 96.5863C125.204 96.6947 125.076 96.6292 124.913 96.4015C124.775 96.2078 124.495 95.9868 124.291 95.9103C124.087 95.8341 123.921 95.7032 123.921 95.6194C123.921 95.5359 124.483 94.8786 125.17 94.1588Z" fill="#451772"/>
<path d="M101.69 84.647C101.794 84.2408 101.896 83.8349 101.999 83.4287C101.999 83.4667 101.999 83.5049 101.998 83.5429C101.998 83.6057 102.105 83.6801 102.238 83.7077C102.384 83.739 102.46 83.8865 102.431 84.0884C102.402 84.3015 102.467 84.4175 102.617 84.4157C102.744 84.4142 102.938 84.4743 103.048 84.5493C103.157 84.6243 103.296 84.6282 103.357 84.5584C103.533 84.3528 103.675 84.3601 103.864 84.5848C103.961 84.7008 104.086 84.7697 104.14 84.7375C104.193 84.7053 104.4 84.7915 104.6 84.9294C104.811 85.0757 104.92 85.1009 104.861 84.9895C104.805 84.8847 104.842 84.7991 104.942 84.7991C105.042 84.7991 105.133 85.022 105.144 85.2943C105.161 85.7208 105.217 85.7864 105.55 85.7703C106.334 85.7324 106.652 85.8626 106.55 86.1792C106.487 86.3754 106.537 86.5013 106.939 86.6267C107.389 90.5364 107.744 91.5932 109.427 94.0453C110.219 95.1992 110.319 95.4591 109.969 95.4591C109.848 95.4591 109.685 95.7341 109.592 96.0945C109.467 96.5824 109.381 96.695 109.226 96.5781C108.897 96.3313 107.764 96.0575 107.494 96.1598C107.357 96.212 107.148 96.1759 107.031 96.0799C106.655 95.7721 106.333 96.2524 106.508 96.8586C106.628 97.2737 106.6 97.4288 106.345 97.7394C106.037 98.1161 106.037 98.1161 105.696 97.8153C104.97 97.1747 103.491 94.644 102.774 92.8151C102.069 91.0167 101.836 89.6912 101.76 87.0454C101.736 86.246 101.714 85.4464 101.69 84.647Z" fill="#451772"/>
<path d="M135.19 110.687C131.783 114.11 130.69 115.1 130.561 115.097C130.021 115.081 124.945 113.643 124.893 113.491C124.863 113.4 125.691 112.545 126.734 111.592C127.776 110.639 129.307 109.223 130.134 108.445C130.636 107.975 131.138 107.503 131.64 107.032C131.692 107.095 131.745 107.157 131.798 107.219C131.912 107.353 131.859 107.479 131.607 107.666C131.415 107.809 131.306 107.972 131.364 108.03C131.423 108.088 131.58 108.026 131.714 107.894C132.021 107.591 132.597 107.772 132.662 108.191C132.692 108.387 132.845 108.499 133.113 108.521C133.363 108.541 133.494 108.486 133.458 108.377C133.422 108.271 133.579 108.195 133.85 108.187C134.214 108.176 134.305 108.241 134.321 108.517C134.332 108.705 134.385 108.86 134.439 108.86C134.625 108.86 134.707 109.503 134.566 109.866C134.483 110.082 134.483 110.23 134.565 110.23C134.642 110.23 134.814 110.333 135.19 110.687Z" fill="#451772"/>
<path d="M113.268 95.6117C113.077 95.8604 111.82 94.6976 110.866 93.3901C109.8 91.9295 108.725 89.5229 109.138 89.5211C109.177 89.5208 109.216 89.5208 109.254 89.5205C110.226 92.1778 110.836 93.2185 112.22 94.5804C112.569 94.9241 112.919 95.2681 113.268 95.6117Z" fill="#150F37"/>
<path d="M113.886 96.0682C113.67 96.1981 113.566 96.1295 113.515 95.9996C113.485 95.9209 113.454 95.8423 113.423 95.7637C113.577 95.8651 113.732 95.9665 113.886 96.0682Z" fill="#150F37"/>
<path d="M104.52 84.6473C104.548 84.6473 104.618 84.6015 104.674 84.5456C104.731 84.4897 104.778 84.4858 104.778 84.5368C104.778 84.5875 104.708 84.6716 104.623 84.7235C104.538 84.7751 104.469 84.7791 104.469 84.7323C104.469 84.6856 104.492 84.6473 104.52 84.6473Z" fill="#5C3481"/>
<path d="M114.35 96.3728C114.117 96.5085 114.047 96.4742 114.045 96.3843C114.044 96.3297 114.042 96.275 114.041 96.2207C114.144 96.2714 114.247 96.3221 114.35 96.3728Z" fill="#150F37"/>
<path d="M134.882 109.545C134.967 109.493 135.036 109.485 135.036 109.527C135.036 109.569 134.967 109.645 134.882 109.697C134.797 109.749 134.728 109.757 134.728 109.715C134.728 109.673 134.797 109.596 134.882 109.545Z" fill="#5C3481"/>
<path d="M202.589 187.209C202.9 188.05 202.798 189.251 202.366 189.85C202.175 190.114 201.694 190.518 201.296 190.749C200.62 191.141 200.457 191.169 198.794 191.169C197.188 191.169 196.94 191.131 196.246 190.779C195.18 190.238 194.783 189.611 194.783 188.466C194.783 187.399 195.1 186.648 195.74 186.198C195.892 186.092 196.043 185.985 196.195 185.879C196.066 185.745 195.936 185.611 195.806 185.478C194.911 184.557 194.707 183.233 195.285 182.102C195.557 181.57 195.817 181.329 196.481 180.993C197.282 180.588 197.423 180.566 198.952 180.616C200.325 180.661 200.674 180.725 201.236 181.04C202.284 181.626 202.587 182.284 202.526 183.839C202.507 184.307 202.375 184.553 201.883 185.039C201.676 185.243 201.47 185.447 201.263 185.651C201.447 185.809 201.63 185.967 201.813 186.125C202.116 186.387 202.465 186.874 202.589 187.209ZM197.297 187.05C196.771 187.654 196.814 188.55 197.396 189.125C197.795 189.518 197.955 189.57 198.776 189.57C199.532 189.57 199.786 189.502 200.132 189.209C200.614 188.799 200.705 188.033 200.35 187.377C199.843 186.444 197.998 186.247 197.297 187.05ZM197.478 182.634C196.899 183.205 197.01 184.281 197.703 184.806C198.017 185.043 199.179 185.054 199.618 184.824C200.477 184.373 200.601 183.407 199.89 182.705C199.508 182.329 199.316 182.26 198.647 182.26C198.014 182.26 197.782 182.335 197.478 182.634Z" fill="#451772"/>
<path d="M177.798 184.122C178.233 187.066 177.611 189.651 176.229 190.638C174.533 191.85 171.621 191.391 170.654 189.759C170.163 188.929 169.931 187.744 169.932 186.067C169.933 182.285 171.112 180.584 173.73 180.586C175.038 180.587 175.8 180.786 176.399 181.283C176.994 181.777 177.647 183.103 177.798 184.122ZM172.076 184.378C171.93 185.403 172.024 187.601 172.247 188.382C172.463 189.139 173.044 189.57 173.851 189.57C174.598 189.57 175.073 189.284 175.447 188.609C175.666 188.215 175.717 187.735 175.717 186.067C175.717 184.239 175.678 183.934 175.367 183.312C175.01 182.597 174.529 182.26 173.864 182.26C172.884 182.26 172.275 182.982 172.076 184.378Z" fill="#451772"/>
<path d="M190.294 184.901C190.493 186.899 190.172 188.801 189.463 189.831C188.147 191.741 184.969 191.889 183.389 190.114C181.872 188.409 181.975 183.218 183.559 181.518C184.147 180.887 185.019 180.592 186.291 180.592C188.789 180.592 189.994 181.888 190.294 184.901ZM184.573 183.935C184.508 184.228 184.476 185.256 184.503 186.219C184.573 188.775 185.015 189.57 186.369 189.57C187.715 189.57 188.222 188.59 188.22 185.991C188.219 183.428 187.62 182.26 186.305 182.26C185.383 182.26 184.823 182.802 184.573 183.935Z" fill="#451772"/>
<path d="M158.387 180.971C159.069 180.755 160.375 180.586 161.328 180.592C162.826 180.601 163.83 180.96 164.434 181.702C164.857 182.224 164.909 182.397 164.909 183.301C164.91 184.855 164.429 185.712 162.451 187.68C161.553 188.573 160.819 189.329 160.819 189.361C160.819 189.392 161.791 189.417 162.98 189.417C163.701 189.417 164.421 189.417 165.142 189.417C165.142 189.697 165.142 189.976 165.142 190.255C165.142 190.534 165.142 190.814 165.142 191.093C163.984 191.093 162.826 191.093 161.668 191.093C160.51 191.093 159.352 191.093 158.194 191.093C158.194 190.807 158.194 190.521 158.194 190.236C158.194 189.95 158.194 189.664 158.194 189.378C158.758 188.85 159.321 188.321 159.884 187.793C162.519 185.319 163.139 184.287 162.665 183.158C162.312 182.318 161.196 182.073 159.364 182.436C158.625 182.583 158.451 182.576 158.337 182.398C158.129 182.074 158.166 181.042 158.387 180.971Z" fill="#3D1969"/>
<path d="M139.11 185.289C139.436 184.389 139.932 183.833 140.781 183.416C142.539 182.552 144.64 183.155 145.493 184.768C145.631 185.027 145.766 185.79 145.81 186.558C145.836 187.003 145.861 187.449 145.887 187.895C145.057 187.895 144.226 187.895 143.396 187.895C141.126 187.895 140.904 187.919 140.905 188.161C140.906 188.606 141.496 189.415 141.946 189.589C142.351 189.745 144.38 189.671 145.188 189.471C145.514 189.39 145.536 189.433 145.536 190.145C145.536 190.398 145.536 190.651 145.536 190.905C145.307 190.961 145.078 191.018 144.85 191.075C144.473 191.168 143.58 191.245 142.866 191.245C140.804 191.245 139.875 190.797 139.267 189.509C138.96 188.859 138.901 188.496 138.906 187.286C138.908 186.49 139 185.592 139.11 185.289ZM143.691 185.535C143.121 184.16 141.204 184.459 140.956 185.962C140.925 186.149 140.895 186.337 140.864 186.524C141.359 186.524 141.855 186.524 142.351 186.524C143.792 186.524 143.837 186.514 143.828 186.182C143.822 185.993 143.761 185.702 143.691 185.535Z" fill="#3D1969"/>
<path d="M116.415 183.236C116.8 183.09 118.286 183.242 118.286 183.428C118.286 183.773 118.485 183.792 119 183.496C120.1 182.864 121.442 182.954 122.368 183.722C123.122 184.348 123.304 185.25 123.304 188.361C123.304 189.259 123.304 190.158 123.304 191.056C122.982 191.08 122.66 191.105 122.339 191.129C121.808 191.17 121.322 191.174 121.258 191.139C121.195 191.103 121.142 189.823 121.142 188.293C121.142 185.582 121.133 185.503 120.785 185.18C120.301 184.732 119.115 184.717 118.672 185.154C118.386 185.436 118.363 185.661 118.363 188.262C118.363 189.197 118.363 190.132 118.363 191.066C118.024 191.083 117.684 191.101 117.345 191.118C116.785 191.146 116.304 191.133 116.276 191.088C116.249 191.044 116.222 189.277 116.216 187.162C116.207 184.053 116.246 183.3 116.415 183.236Z" fill="#3D1969"/>
<path d="M97.673 184.791C97.8576 184.218 98.4051 183.642 99.0066 183.389C99.7436 183.079 101.344 182.997 102.462 183.211C102.796 183.275 103.13 183.34 103.465 183.404C103.481 183.702 103.496 184 103.512 184.298C103.551 185.05 103.521 185.179 103.322 185.103C103.193 185.054 102.51 184.938 101.806 184.846C100.207 184.636 99.6828 184.782 99.6828 185.436C99.6828 185.944 99.9619 186.093 101.458 186.381C103.289 186.733 103.851 187.283 103.851 188.718C103.851 190.552 102.777 191.335 100.3 191.306C99.5787 191.298 98.6928 191.21 98.3319 191.11C98.113 191.05 97.8947 190.989 97.6758 190.929C97.6758 190.645 97.6758 190.362 97.6758 190.078C97.6758 189.794 97.6758 189.511 97.6758 189.227C97.8428 189.263 98.0105 189.299 98.1775 189.335C99.1826 189.549 100.544 189.68 101.024 189.61C101.697 189.512 102.077 189.086 101.857 188.679C101.671 188.337 101.534 188.284 100.255 188.06C99.0995 187.857 98.3637 187.506 97.9802 186.976C97.6214 186.478 97.4723 185.417 97.673 184.791Z" fill="#3D1969"/>
<path d="M128.378 185.457C128.621 184.73 129.006 184.122 129.471 183.736C130.068 183.241 131.414 182.96 132.548 183.094C134.135 183.281 134.11 183.265 134.11 184.122C134.11 184.376 134.11 184.63 134.11 184.884C133.781 184.85 133.452 184.815 133.124 184.78C131.896 184.651 130.957 184.879 130.618 185.388C130.236 185.964 130.155 187.603 130.469 188.415C130.86 189.424 131.268 189.619 132.82 189.539C133.25 189.516 133.68 189.494 134.11 189.472C134.11 189.735 134.11 189.999 134.11 190.262C134.11 190.526 134.11 190.789 134.11 191.053C133.917 191.084 133.724 191.115 133.531 191.147C131.321 191.507 129.543 191.032 128.765 189.873C128.374 189.291 128.336 189.102 128.295 187.539C128.271 186.604 128.309 185.667 128.378 185.457Z" fill="#3D1969"/>
<path d="M108.725 183.289C108.867 183.152 110.209 183.136 110.555 183.267C110.769 183.348 110.799 183.843 110.798 187.264C110.798 188.566 110.797 189.867 110.797 191.169C110.463 191.172 110.129 191.174 109.795 191.176C109.46 191.178 109.126 191.181 108.792 191.183C108.791 190.14 108.791 189.097 108.79 188.054C108.79 186.333 108.748 184.583 108.698 184.164C108.648 183.745 108.66 183.351 108.725 183.289Z" fill="#3D1969"/>
<path d="M109.834 180.007C110.181 180.022 110.529 180.037 110.876 180.052C110.876 180.382 110.876 180.712 110.876 181.042C110.876 181.372 110.876 181.702 110.876 182.032C110.529 182.047 110.181 182.062 109.834 182.077C109.487 182.092 109.139 182.106 108.792 182.122C108.792 181.762 108.792 181.402 108.792 181.042C108.792 180.682 108.792 180.322 108.792 179.962C109.139 179.977 109.487 179.992 109.834 180.007Z" fill="#3D1969"/>
</svg>
