<svg width="300" height="300" viewBox="0 0 300 300" fill="none" xmlns="http://www.w3.org/2000/svg">
<rect width="300" height="300" rx="150" fill="#2A2A2A"/>
<path d="M166.32 197.923C166.532 197.476 166.744 197.03 166.956 196.583C167.305 195.846 167.963 194.375 168.417 193.314C168.871 192.253 170.154 189.322 171.27 186.802C172.385 184.281 173.546 181.641 173.85 180.934C175.878 176.212 177.918 171.487 178.795 169.478C179.358 168.187 179.955 166.815 180.123 166.429C180.29 166.043 180.918 164.61 181.519 163.244C182.121 161.877 182.849 160.207 183.139 159.53C185.384 154.288 187.337 149.789 189.109 145.783C190.25 143.201 191.397 140.586 191.656 139.971C191.916 139.356 192.193 138.782 192.272 138.695C192.395 138.56 192.69 139.069 194.274 142.141C195.556 144.628 196.112 145.811 196.006 146.174C195.677 146.966 195.347 147.757 195.018 148.549C194.475 149.855 193.403 152.358 192.635 154.11C191.868 155.861 191.017 157.823 190.744 158.469C190.471 159.114 189.558 161.226 188.716 163.163C187.874 165.099 186.829 167.513 186.395 168.528C185.383 170.889 184.615 172.654 182.675 177.078C181.812 179.045 180.475 182.113 179.704 183.896C178.932 185.679 178.026 187.766 177.69 188.534C177.157 189.751 173.348 198.533 172.369 200.799C172.253 201.068 172.137 201.337 172.02 201.607C171.419 201.757 170.817 201.908 170.215 202.058C170.107 202.058 169.999 202.058 169.891 202.058C169.383 202.058 167.298 200.879 167.105 200.483C166.766 199.787 166.32 198.333 166.32 197.923Z" fill="#DCAB18"/>
<path d="M175.269 203.734C175.459 203.315 175.65 202.896 175.84 202.477C176.155 201.785 176.836 200.239 177.354 199.04C177.872 197.841 178.899 195.503 179.636 193.843C180.373 192.183 181.616 189.341 182.398 187.528C183.179 185.715 183.984 183.853 184.187 183.392C184.389 182.931 185.018 181.473 185.585 180.151C186.152 178.829 187.407 175.963 188.375 173.78C190.326 169.377 191.931 165.686 193.792 161.318C194.474 159.72 195.41 157.557 195.872 156.512C196.335 155.467 197.081 153.757 197.53 152.712C197.979 151.667 198.387 150.766 198.435 150.71C198.607 150.514 198.85 150.907 200.174 153.532C200.909 154.987 201.718 156.589 201.974 157.093C202.427 157.986 202.434 158.018 202.112 158.692C201.548 159.986 200.983 161.281 200.419 162.576C199.488 164.712 198.547 166.887 198.326 167.41C198.106 167.932 197.346 169.692 196.637 171.321C195.929 172.951 194.769 175.616 194.06 177.245C192.949 179.8 191.912 182.175 188.743 189.428C188.407 190.196 187.731 191.756 187.239 192.893C185.586 196.718 182.66 203.442 181.962 205.02C181.581 205.88 181.269 206.648 181.269 206.726C181.269 206.934 180.985 207.037 179.058 207.534C178.99 207.534 178.921 207.534 178.852 207.534C178.539 207.534 176.187 206.429 175.994 206.191C175.9 206.077 175.699 205.477 175.269 203.734Z" fill="#DCAB18"/>
<path d="M163.373 214.911C163.405 214.902 163.438 214.893 163.47 214.883C163.523 214.868 163.966 215.241 164.454 215.713C164.941 216.185 165.519 216.699 165.737 216.857C166.177 217.174 168.664 218.069 169.616 218.253C170.377 218.4 170.456 218.451 170.321 218.711C169.628 219.281 168.935 219.85 168.242 220.419C167.098 221.359 165.653 222.566 163.899 224.076C163.812 224.134 163.724 224.191 163.636 224.249C163.549 224.307 163.461 224.364 163.373 224.422C163.373 221.252 163.373 218.082 163.373 214.911Z" fill="#DCAB18"/>
<path d="M60 229.776C60.2261 229.301 60.4523 228.826 60.6784 228.351C63.0644 223.34 70.4009 207.986 71.8803 204.908C72.4714 203.679 73.0625 202.449 73.6536 201.22C80.8923 201.201 88.131 201.182 95.37 201.164C97.5454 201.164 99.7211 201.164 101.897 201.164C106.028 201.162 110.16 201.16 114.292 201.158C118.424 201.156 122.555 201.154 126.687 201.153C128.635 196.909 130.582 192.666 132.529 188.422C133.301 186.783 134.073 185.144 134.845 183.504C137.021 178.81 139.196 174.116 141.372 169.422C141.758 168.565 142.144 167.708 142.53 166.851C143.209 165.37 143.887 163.889 144.566 162.408C145.686 159.964 147.178 156.72 147.882 155.197C148.585 153.674 149.948 150.682 150.91 148.547C151.873 146.412 153.643 142.527 154.843 139.915C158.1 132.829 158.065 132.913 157.933 132.542C157.871 132.37 157.441 131.582 156.976 130.791C156.512 130 155.503 128.246 154.735 126.894C153.967 125.541 152.865 123.605 152.287 122.591C151.178 120.646 150.933 120.217 146.214 111.973C146.135 111.858 146.056 111.744 145.977 111.63C145.899 111.516 145.82 111.401 145.741 111.287C145.603 111.574 145.465 111.861 145.328 112.149C144.89 113.062 144.579 113.68 142.241 118.288C140.771 121.184 138.697 125.344 136.501 129.8C134.943 132.96 133.624 135.617 131.95 138.965C130.531 141.803 128.253 146.385 126.447 150.03C125.899 151.136 124.989 152.947 124.426 154.053C122.76 157.323 117.792 167.483 117.792 167.619C117.792 167.712 114.341 167.745 91.7909 167.745C91.44 167.754 91.089 167.764 90.7381 167.773C89.8367 167.797 89.685 167.775 89.6852 167.624C89.6854 167.441 94.3289 157.515 96.713 152.6C97.4585 151.064 99.5874 146.612 101.443 142.709C106.503 132.068 108.837 127.181 111.424 121.808C112.712 119.134 115.105 114.13 116.743 110.687C118.381 107.245 120.57 102.668 121.608 100.516C122.645 98.3649 124.752 93.9389 126.288 90.6808C127.825 87.4228 129.212 84.5056 129.37 84.1983C129.528 83.8909 131.092 80.6217 132.846 76.9333C134.599 73.245 137.182 67.8381 138.585 64.9183C139.988 61.9984 142.161 57.4318 143.415 54.7704C144.703 52.0345 145.739 49.9614 145.798 50.0005C145.856 50.0385 146.075 50.4306 146.284 50.8717C146.493 51.3127 147.209 52.7047 147.875 53.965C149.01 56.1114 151.322 60.5141 158.793 74.7539C163.166 83.0898 164.815 86.222 169.323 94.7604C174.658 104.865 175.964 107.344 180.742 116.443C182.986 120.716 185.449 125.393 186.215 126.838C186.981 128.282 188.082 130.358 188.661 131.45C189.4 132.843 189.695 133.502 189.585 133.879C188.985 135.286 188.385 136.692 187.786 138.099C185.113 144.368 182.584 150.242 181.689 152.265C181.443 152.818 181.041 153.749 180.794 154.333C180.021 156.162 177.674 161.613 176.006 165.454C175.124 167.482 173.94 170.223 173.373 171.545C172.807 172.867 171.433 176.035 170.321 178.587C168.267 183.302 164.297 192.436 163.375 194.569C163.097 195.215 162.348 196.95 161.713 198.425C161.327 199.32 160.942 200.214 160.557 201.108C160.575 205.922 160.593 210.735 160.611 215.548C160.629 220.362 160.647 225.175 160.664 229.989C127.496 229.992 94.3268 229.996 61.1578 230C60.9649 230 60.7718 230 60.5789 230C60.2605 230 60 229.95 60 229.776Z" fill="#DCAB18"/>
<path d="M161.583 229.888C161.697 229.796 161.811 229.703 161.925 229.611C162.113 229.458 162.457 229.167 162.688 228.965C162.92 228.762 163.319 228.447 163.576 228.264C163.833 228.082 164.645 227.429 165.381 226.815C166.118 226.2 167.399 225.144 168.23 224.468C169.06 223.791 170.782 222.367 172.056 221.302C173.331 220.238 174.894 218.932 175.531 218.402C176.168 217.871 177.255 216.956 177.948 216.37C178.64 215.783 179.334 215.202 179.49 215.079C180.292 214.448 183.917 211.42 184.373 211C184.663 210.734 184.888 210.448 184.847 210.217C185.002 209.854 185.157 209.491 185.312 209.127C188.15 202.467 190.098 197.872 191.743 193.955C192.827 191.373 194.485 187.425 195.427 185.181C196.369 182.937 197.625 179.97 198.218 178.587C198.81 177.203 199.52 175.519 199.795 174.842C200.07 174.166 201.302 171.207 202.532 168.265C204.368 163.873 204.792 162.944 204.902 163.068C204.977 163.151 206.077 165.205 207.349 167.633C208.62 170.061 210.75 174.11 212.081 176.631C213.413 179.151 216.316 184.684 218.533 188.925C225.523 202.297 229.14 209.199 231.009 212.732C231.399 213.47 233 216.513 234.566 219.494C236.131 222.475 237.995 226.021 238.706 227.373C239.138 228.193 239.569 229.013 240 229.832C216.914 229.851 193.828 229.87 170.741 229.888C168.531 229.926 166.32 229.963 164.109 230C163.267 229.963 162.425 229.926 161.583 229.888Z" fill="#DCAB18"/>
</svg>
