<svg width="300" height="300" viewBox="0 0 300 300" fill="none" xmlns="http://www.w3.org/2000/svg">
<rect width="300" height="300" rx="150" fill="#1147C3"/>
<path d="M60.4187 136.093C61.9729 123.024 64.3586 114.612 69.371 104.525C82.1687 78.773 106.58 60.8844 135.704 55.9175C143.014 54.6713 156.604 54.6984 164.31 55.9756C183.87 59.217 200.176 67.7358 214.483 82.1886C227.048 94.8813 234.592 109.131 238.509 127.569C239.291 131.249 239.586 138.286 239.83 159.138C240.145 185.91 240.142 185.976 238.746 187.707C238.279 188.285 237.812 188.863 237.346 189.442C234.488 189.442 231.631 189.442 228.774 189.442C222.398 189.442 219.88 189.212 218.945 188.546C217.745 187.692 217.67 186.416 217.303 160.609C216.881 130.994 216.794 130.22 212.659 119.491C209.221 110.565 204.994 104.221 197.613 96.9098C188.112 87.4976 177.805 81.6034 165.557 78.5773C158.648 76.8708 141.399 76.8676 134.473 78.5723C114.905 83.3882 97.2251 97.6933 89.1478 115.244C83.4949 127.527 82.6712 133.609 82.668 163.083C82.6654 186.073 82.6194 186.961 81.3702 188.179C80.2039 189.316 79.2118 189.442 71.3798 189.442C58.902 189.442 59.9758 192.048 60.0969 162.051C60.15 148.816 60.295 137.134 60.4187 136.093Z" fill="#FEFEFE"/>
<path d="M61.1365 200.84C61.5154 200.384 61.8942 199.928 62.273 199.472C72.2019 199.536 82.1301 199.601 92.059 199.666C101.988 199.73 111.916 199.794 121.845 199.859C123.572 200.453 125.298 201.048 127.026 201.643C133.946 204.026 139.076 206.747 144.174 210.741C146.521 212.579 149.064 214.051 149.9 214.056C150.749 214.06 153.39 212.55 155.962 210.588C161.656 206.244 169.514 202.442 176.184 200.802C180.908 199.641 183.478 199.543 209.249 199.543C232.34 199.543 237.411 199.698 238.449 200.438C239.585 201.246 239.726 202.295 239.915 211.261C240.029 216.721 239.957 221.839 239.752 222.633C238.851 226.134 239.457 226.059 211.976 226.069C191.857 226.077 185.762 226.272 182.536 227.014C177.506 228.17 174.03 229.864 170.732 232.769C168.163 235.032 164.262 241.706 164.262 243.839C164.262 244.931 163.418 245 150.015 245C136.881 245 135.767 244.914 135.762 243.895C135.739 239.887 129.375 231.835 124.194 229.257C118.395 226.373 115.032 226.079 87.7214 226.069C79.1531 226.066 70.5842 226.063 62.0159 226.06C61.6798 225.592 61.3444 225.124 61.0083 224.656C60.1936 223.522 60 221.232 60 212.731C60 203.639 60.1548 202.022 61.1365 200.84Z" fill="#FEFEFE"/>
<path d="M128.824 143.797C136.297 138.217 148.72 125.254 148.72 123.036C148.72 121.478 150.778 122.957 152.855 126.008C156.387 131.193 163.829 138.544 170.242 143.182C173.364 145.44 175.919 147.499 175.919 147.758C175.919 148.016 173.951 149.458 171.547 150.962C165.994 154.436 156.19 164.006 152.961 169.105C151.596 171.261 150.269 173.027 150.013 173.027C149.757 173.027 148.309 171.158 146.794 168.876C143.188 163.44 133.985 154.446 128.483 150.981C126.078 149.467 124.111 148.023 124.111 147.772C124.111 147.521 126.232 145.733 128.824 143.797Z" fill="#FED009"/>
</svg>
