<svg width="256" height="206" viewBox="0 0 256 206" fill="none" xmlns="http://www.w3.org/2000/svg">
<g clip-path="url(#clip0_71_140)">
<path d="M244 14H26C19.3726 14 14 19.3726 14 26V194C14 200.627 19.3726 206 26 206H244C250.627 206 256 200.627 256 194V26C256 19.3726 250.627 14 244 14Z" fill="#202124"/>
<path d="M231 0.5H12C5.64873 0.5 0.5 5.64873 0.5 12V181C0.5 187.351 5.64873 192.5 12 192.5H231C237.351 192.5 242.5 187.351 242.5 181V12C242.5 5.64873 237.351 0.5 231 0.5Z" fill="white" stroke="#202124"/>
<path d="M12 0.5H232C238.351 0.5 243.5 5.64873 243.5 12V43.5H0.5V12C0.5 5.64872 5.64872 0.5 12 0.5Z" fill="white" stroke="black"/>
<path d="M0 44H244" stroke="#202124"/>
<path d="M28 28C31.3137 28 34 25.3137 34 22C34 18.6863 31.3137 16 28 16C24.6863 16 22 18.6863 22 22C22 25.3137 24.6863 28 28 28Z" stroke="#202124" stroke-width="1.5"/>
<path d="M48 28C51.3137 28 54 25.3137 54 22C54 18.6863 51.3137 16 48 16C44.6863 16 42 18.6863 42 22C42 25.3137 44.6863 28 48 28Z" stroke="#202124" stroke-width="1.5"/>
<path d="M68 28C71.3137 28 74 25.3137 74 22C74 18.6863 71.3137 16 68 16C64.6863 16 62 18.6863 62 22C62 25.3137 64.6863 28 68 28Z" stroke="#202124" stroke-width="1.5"/>
<path d="M101 76H43C42.4477 76 42 76.4477 42 77C42 77.5523 42.4477 78 43 78H101C101.552 78 102 77.5523 102 77C102 76.4477 101.552 76 101 76Z" fill="#202124"/>
<path d="M101 96H43C42.4477 96 42 96.4477 42 97C42 97.5523 42.4477 98 43 98H101C101.552 98 102 97.5523 102 97C102 96.4477 101.552 96 101 96Z" fill="#202124"/>
<path d="M101 116H43C42.4477 116 42 116.448 42 117C42 117.552 42.4477 118 43 118H101C101.552 118 102 117.552 102 117C102 116.448 101.552 116 101 116Z" fill="#202124"/>
<path d="M208 86H160C157.791 86 156 87.7909 156 90V138C156 140.209 157.791 142 160 142H208C210.209 142 212 140.209 212 138V90C212 87.7909 210.209 86 208 86Z" fill="#4285F4"/>
<path d="M194.5 72.5H146.5C144.291 72.5 142.5 74.2909 142.5 76.5V124.5C142.5 126.709 144.291 128.5 146.5 128.5H194.5C196.709 128.5 198.5 126.709 198.5 124.5V76.5C198.5 74.2909 196.709 72.5 194.5 72.5Z" stroke="#202124"/>
</g>
<defs>
<clipPath id="clip0_71_140">
<rect width="256" height="206" fill="white"/>
</clipPath>
</defs>
</svg>
